<?xml version="1.0" standalone="no"?>
<!DOCTYPE svg PUBLIC "-//W3C//DTD SVG 1.1//EN" "http://www.w3.org/Graphics/SVG/1.1/DTD/svg11.dtd" >
<svg>
<metadata>
Created by FontForge 20120731 at Tue Mar  1 15:26:00 2016
 By www-data
Copyright (c) 2011, Denis Masharov (denis.masharov@gmail.com)
</metadata>
<defs>
<font id="PoiretOne-Regular" horiz-adv-x="1020" >
  <font-face 
    font-family="Poiret One"
    font-weight="400"
    font-stretch="normal"
    units-per-em="1000"
    panose-1="2 0 0 0 0 0 0 0 0 0"
    ascent="800"
    descent="-200"
    x-height="450"
    cap-height="750"
    bbox="-81 -208 1105 962"
    underline-thickness="50"
    underline-position="-50"
    unicode-range="U+000D-FB04"
  />
<missing-glyph horiz-adv-x="470" 
 />
    <glyph glyph-name=".notdef" horiz-adv-x="470" 
 />
    <glyph glyph-name=".null" horiz-adv-x="0" 
 />
    <glyph glyph-name="nonmarkingreturn" horiz-adv-x="333" 
 />
    <glyph glyph-name="NULL" horiz-adv-x="20" 
 />
    <glyph glyph-name="NULL" horiz-adv-x="20" 
 />
    <glyph glyph-name="CR" unicode="&#xd;" horiz-adv-x="470" 
 />
    <glyph glyph-name="space" unicode=" " horiz-adv-x="350" 
 />
    <glyph glyph-name="exclam" unicode="!" horiz-adv-x="226" 
d="M98 750h33v-650h-33v650zM80 24q0 31 33 31t33 -31t-33 -31t-33 31z" />
    <glyph glyph-name="quotedbl" unicode="&#x22;" horiz-adv-x="275" 
d="M70 631v179h33v-179h-33zM172 631v179h33v-179h-33z" />
    <glyph glyph-name="numbersign" unicode="#" horiz-adv-x="672" 
d="M15 496h255l111 252h33l-111 -252h185l111 252h33l-111 -252h136v-31h-150l-68 -153h218v-31h-231l-124 -281h-32l124 281h-186l-124 -281h-31l123 281h-161v31h175l67 153h-242v31zM290 465l-68 -153h185l68 153h-185z" />
    <glyph glyph-name="dollar" unicode="$" horiz-adv-x="507" 
d="M116 494q-43 39 -43 106t49 109.5t112 49.5v56h31v-56q83 -6 134 -67v-48q-17 32 -55.5 56t-78.5 30v-286q39 -17 61 -27.5t54 -31.5t49 -41q43 -52 43 -123q0 -90 -60 -155.5t-147 -77.5v-61h-31v59q-62 2 -115.5 30t-83.5 73v52q26 -53 81 -88.5t118 -37.5v407
q-75 33 -118 72zM384 342q-45 36 -119 68v-393q74 12 125 68.5t51 133.5t-57 123zM144.5 684.5q-38.5 -36.5 -38.5 -87.5t33 -81.5t95 -59.5v274q-51 -9 -89.5 -45.5z" />
    <glyph glyph-name="percent" unicode="%" horiz-adv-x="692" 
d="M511 -11h-10q-64 0 -111 49t-47 115t48 114t116.5 48t116.5 -48t48 -114t-47.5 -115t-113.5 -49zM600.5 245.5q-39.5 40.5 -92.5 40.5t-93 -40.5t-40 -94t40 -93.5t93 -40t92.5 40t39.5 93.5t-39.5 94zM188 435h-10q-65 0 -111.5 49t-46.5 115t47.5 114t116 48t116 -48
t47.5 -114t-47 -115t-112 -49zM184 732q-54 0 -94 -40.5t-40 -94t40 -93.5t94 -40t92.5 39.5t38.5 93.5t-38.5 94.5t-92.5 40.5zM592 750h39l-559 -750h-37z" />
    <glyph glyph-name="ampersand" unicode="&#x26;" horiz-adv-x="696" 
d="M35 238q0 80 49.5 147t128.5 91q-37 18 -61 55t-24 78q0 63 45 107t113 44t114 -52v-53q-14 33 -47 55t-76.5 22t-80 -36.5t-36.5 -85.5t36.5 -85.5t86.5 -36.5h14v-28h-8q-90 0 -156.5 -66.5t-66.5 -157t66 -156t157 -65.5t157 65t66 157v223h-139v28h308v-28h-139v-460
h-30v128q-22 -60 -85.5 -101t-137.5 -41q-105 0 -179.5 74.5t-74.5 177.5z" />
    <glyph glyph-name="quotesingle" unicode="'" horiz-adv-x="183" 
d="M75 632v178h33v-178h-33z" />
    <glyph glyph-name="parenleft" unicode="(" horiz-adv-x="333" 
d="M145 119q-60 119 -60 248.5t59.5 247.5t163.5 203v-36q-190 -174 -190 -417q0 -120 50 -226t140 -187v-39q-103 87 -163 206z" />
    <glyph glyph-name="parenright" unicode=")" horiz-adv-x="334" 
d="M191 612.5q58 -115.5 58 -246t-60 -248.5t-164 -204v38q91 80 141 186.5t50 226.5t-50 227t-141 187v30l4 2q104 -83 162 -198.5z" />
    <glyph glyph-name="asterisk" unicode="*" horiz-adv-x="313" 
d="M146 745h25v-91l69 71l21 -20l-70 -70h87v-26h-87l69 -67l-22 -21l-67 69v-89h-25v90l-69 -70l-21 21l69 67h-90v26h91l-71 70l20 20l71 -71v91z" />
    <glyph glyph-name="plus" unicode="+" horiz-adv-x="341" 
d="M155 387h-140v31h140v139h33v-139h138v-31h-138v-134h-33v134z" />
    <glyph glyph-name="comma" unicode="," horiz-adv-x="139" 
d="M66 -63v56q-31 0 -31 31t34.5 31t34.5 -31q0 -7 -3 -16l-31 -71h-4z" />
    <glyph glyph-name="hyphen" unicode="-" horiz-adv-x="391" 
d="M351 387h-311v31h311v-31z" />
    <glyph glyph-name="period" unicode="." horiz-adv-x="139" 
d="M35 24q0 31 34.5 31t34.5 -31t-34.5 -31t-34.5 31z" />
    <glyph glyph-name="slash" unicode="/" horiz-adv-x="646" 
d="M582 748h39l-559 -748h-37z" />
    <glyph glyph-name="zero" unicode="0" horiz-adv-x="856" 
d="M435 -13h-15q-155 0 -267.5 116t-112.5 272.5t114 271t274 114.5t274 -114t114 -274q0 -101 -51 -190t-139.5 -142.5t-190.5 -53.5zM678.5 626.5q-104.5 105.5 -251 105.5t-250.5 -105.5t-104 -253t104 -252.5t250.5 -105t251 105t104.5 252.5t-104.5 253z" />
    <glyph glyph-name="one" unicode="1" horiz-adv-x="241" 
d="M133 0v719h-118v29h151v-748h-33z" />
    <glyph glyph-name="two" unicode="2" horiz-adv-x="637" 
d="M556 480q0 101 -66 176t-175 75t-181.5 -78.5t-72.5 -190.5h-31q0 127 82 212t204.5 85t197.5 -83t75 -197q0 -165 -177 -276l-272 -170h446v-33h-550l349 221q171 108 171 259z" />
    <glyph glyph-name="three" unicode="3" horiz-adv-x="589" 
d="M544 242q0 -105 -75.5 -178.5t-181.5 -73.5t-181.5 71t-75.5 170v21h31v-16q0 -91 65.5 -154.5t158.5 -63.5t159.5 63.5t66.5 155.5q0 63 -33.5 122t-87.5 82l-19 8l18 14q26 20 40.5 52.5t14.5 66.5q0 61 -45.5 106t-109 45t-111 -46.5t-49.5 -111.5h-32
q2 77 57.5 131.5t134 54.5t133 -51t54.5 -124.5t-53 -131.5q55 -33 88 -89.5t33 -122.5z" />
    <glyph glyph-name="four" unicode="4" horiz-adv-x="490" 
d="M355 0v91h-338l371 669v-636h87v-33h-87v-91h-33zM355 124v521l-289 -521h289z" />
    <glyph glyph-name="five" unicode="5" horiz-adv-x="649" 
d="M521 750v-29h-381l-27 -257q35 45 90 69t116 24q119 0 202 -83.5t83 -201t-83.5 -200t-201.5 -82.5q-95 0 -173.5 60t-100.5 152h31q24 -80 92 -132t151 -52q105 0 179 74.5t74 180t-74 181t-179 75.5q-62 0 -117 -30.5t-91 -82.5h-35l35 334h410z" />
    <glyph glyph-name="six" unicode="6" horiz-adv-x="631" 
d="M324 555q110 0 193.5 -85t83.5 -201t-84 -198.5t-201.5 -82.5t-200 82t-82.5 197.5t101 231.5l219 251h38l-198 -227q17 13 56 22.5t75 9.5zM138 90.5q74 -74.5 177.5 -74.5t176.5 74.5t73 179.5t-73.5 181t-175.5 76t-177 -76.5t-75 -181t74 -179z" />
    <glyph glyph-name="seven" unicode="7" horiz-adv-x="535" 
d="M20 748h495l-386 -748h-37l371 719h-443v29z" />
    <glyph glyph-name="eight" unicode="8" horiz-adv-x="569" 
d="M435 609q0 -41 -22 -76t-60 -55q81 -20 133.5 -89t52.5 -151q0 -104 -74.5 -178t-179.5 -74t-180 74.5t-75 177.5q0 80 50.5 147t129.5 91q-37 18 -61 55t-24 78q0 63 45 107t109.5 44t110 -44t45.5 -107zM193.5 695.5q-36.5 -36.5 -36.5 -85.5t36.5 -85.5t86 -36.5
t86.5 36.5t37 85.5t-37 85.5t-86.5 36.5t-86 -36.5zM128.5 80.5q65.5 -65.5 156.5 -65.5t156 65.5t65 156.5t-65 157t-155.5 66t-156.5 -66.5t-66 -157t65.5 -156z" />
    <glyph glyph-name="nine" unicode="9" horiz-adv-x="631" 
d="M305 195q-111 0 -194 84.5t-83 201t84 199t201.5 82.5t200 -82.5t82.5 -197.5t-101 -231l-219 -251h-38l198 227q-17 -13 -56 -22.5t-75 -9.5zM491 659.5q-74 74.5 -177.5 74.5t-176.5 -74.5t-73 -179.5t73.5 -181t175.5 -76t177 76.5t75 181t-74 179z" />
    <glyph glyph-name="colon" unicode=":" horiz-adv-x="237" 
d="M85 24q0 31 33.5 31t33.5 -31t-33.5 -31t-33.5 31zM85 292q0 31 33.5 31t33.5 -31t-33.5 -31t-33.5 31z" />
    <glyph glyph-name="semicolon" unicode=";" horiz-adv-x="239" 
d="M85 292q0 31 34.5 31t34.5 -31t-34.5 -31t-34.5 31zM116 -63v56q-31 0 -31 31t34.5 31t34.5 -31q0 -7 -3 -16l-31 -71h-4z" />
    <glyph glyph-name="less" unicode="&#x3c;" horiz-adv-x="408" 
d="M75 444l313 182v-38l-271 -159l271 -160v-40l-313 185v30z" />
    <glyph glyph-name="equal" unicode="=" horiz-adv-x="411" 
d="M361 461h-311v31h311v-31zM361 333h-311v29h311v-29z" />
    <glyph glyph-name="greater" unicode="&#x3e;" horiz-adv-x="408" 
d="M75 626l313 -183v-29l-313 -185v40l271 160l-271 159v38z" />
    <glyph glyph-name="question" unicode="?" horiz-adv-x="646" 
d="M45 511q6 111 76 181t181.5 70t185 -73t73.5 -169.5t-71 -184.5q-69 -68 -168 -74v-165h-32v194h14q100 0 162.5 66t62.5 158.5t-65.5 155.5t-162.5 63t-157.5 -60.5t-64.5 -161.5h-34zM274 24q0 31 34.5 31t34.5 -31t-34.5 -31t-34.5 31z" />
    <glyph glyph-name="at" unicode="@" horiz-adv-x="880" 
d="M447 -13h-15q-155 0 -268.5 117t-113.5 273.5t115 271t276 114.5t275 -114t114 -271.5t-113 -274t-270 -116.5zM692.5 628.5q-104.5 105.5 -252 105.5t-252.5 -105.5t-105 -253t105 -253.5t252 -106t252 106t105 253.5t-104.5 253zM676 600v-450h-32v105q-32 -54 -87 -85
t-117 -31q-98 0 -168 69.5t-70 166.5t70 166.5t168 69.5q62 0 117 -31t87 -85v105h32zM295.5 228.5q61.5 -61.5 146 -61.5t144.5 61.5t60 146t-60.5 146.5t-144.5 62t-145.5 -62.5t-61.5 -146.5t61.5 -145.5z" />
    <glyph glyph-name="A" unicode="A" horiz-adv-x="809" 
d="M404 768l375 -768h-35l-142 286h-401l-140 -286h-31zM401 699l-187 -384h376z" />
    <glyph glyph-name="B" unicode="B" horiz-adv-x="387" 
d="M75 750h32q65 0 109 -40.5t44 -103.5q0 -38 -24.5 -77.5t-57.5 -51.5q77 -19 128 -82t51 -158.5t-73 -166t-177 -70.5h-32v750zM107 459v-431h8q86 0 148.5 64t62.5 152t-62 151.5t-149 63.5h-8zM107 722v-236h8q45 0 79.5 36.5t34.5 84t-34 81.5t-80 34h-8z" />
    <glyph glyph-name="C" unicode="C" horiz-adv-x="698" 
d="M440 -11h-11q-103 0 -192 54t-140.5 143.5t-51.5 190.5q0 159 115 273.5t275 114.5q107 0 203 -56v-37q-94 64 -203 64q-147 0 -252 -105.5t-105 -253t105 -253.5t252 -106q109 0 203 64v-37q-91 -56 -198 -56z" />
    <glyph glyph-name="D" unicode="D" horiz-adv-x="526" 
d="M75 750h32q168 0 271 -110.5t103 -265t-102.5 -264.5t-271.5 -110h-32v750zM115 720h-8v-689h8q146 0 239.5 101t93.5 242.5t-93.5 243.5t-239.5 102z" />
    <glyph glyph-name="E" unicode="E" horiz-adv-x="369" 
d="M75 750h269v-29h-236v-408h197v-29h-197v-255h236v-29h-269v750z" />
    <glyph glyph-name="F" unicode="F" horiz-adv-x="367" 
d="M75 750h267v-29h-234v-406h195v-29h-195v-286h-33v750z" />
    <glyph glyph-name="G" unicode="G" horiz-adv-x="693" 
d="M357 286v29h281v-271q-88 -55 -198 -55h-11q-103 0 -192 54t-140.5 143.5t-51.5 190.5q0 159 115 273.5t275 114.5q107 0 203 -56v-37q-94 64 -203 64q-147 0 -252 -105.5t-105 -253t105 -253.5t252 -106q82 0 170 42v226h-248z" />
    <glyph glyph-name="H" unicode="H" horiz-adv-x="730" 
d="M622 750h33v-750h-33v286h-514v-286h-33v750h33v-435h514v435z" />
    <glyph glyph-name="I" unicode="I" horiz-adv-x="193" 
d="M80 750h33v-750h-33v750z" />
    <glyph glyph-name="J" unicode="J" horiz-adv-x="467" 
d="M174 721v29h218v-520q0 -109 -59.5 -177t-155.5 -68h-10q-80 0 -147 57v41q63 -69 151 -69t138 59.5t50 152.5v495h-185z" />
    <glyph glyph-name="K" unicode="K" horiz-adv-x="572" 
d="M75 750h32v-275l317 275h40l-343 -299l431 -451h-44l-400 417v-417h-33v750z" />
    <glyph glyph-name="L" unicode="L" horiz-adv-x="360" 
d="M108 750v-721h232v-29h-265v750h33z" />
    <glyph glyph-name="M" unicode="M" horiz-adv-x="919" 
d="M844 750v-750h-33v711l-354 -725l-352 725v-711h-30v750h48l337 -692l338 692h46z" />
    <glyph glyph-name="N" unicode="N" horiz-adv-x="731" 
d="M627 750h29v-761l-552 679v-668h-29v761l552 -678v667z" />
    <glyph glyph-name="O" unicode="O" horiz-adv-x="870" 
d="M158.5 104q-113.5 117 -113.5 273.5t115 271t276 114.5t275 -114t114 -271.5t-113 -274t-270 -116.5h-15q-155 0 -268.5 117zM687.5 628.5q-104.5 105.5 -252 105.5t-252.5 -105.5t-105 -253t105 -253.5t252 -106t252 106t105 253.5t-104.5 253z" />
    <glyph glyph-name="P" unicode="P" horiz-adv-x="390" 
d="M74 750h33q104 0 177 -71.5t73 -168.5t-75.5 -167t-166.5 -70h-8v-273h-33v750zM107 301h8q84 0 146.5 62t62.5 147t-63.5 148t-145.5 63h-8v-420z" />
    <glyph glyph-name="Q" unicode="Q" horiz-adv-x="870" 
d="M825 376q0 -89 -41.5 -170.5t-110.5 -136.5l81 -81h-44l-62 62q-95 -62 -208 -62h-11q-103 0 -192 54t-140.5 143.5t-51.5 190.5q0 159 115 273.5t276 114.5t275 -114t114 -274zM435 17q101 0 191 55l-173 171h43l154 -152q64 51 103 127t39 158q0 148 -104.5 253.5
t-252 105.5t-252.5 -105.5t-105 -253t105 -253.5t252 -106z" />
    <glyph glyph-name="R" unicode="R" horiz-adv-x="407" 
d="M75 750h43q97 0 170.5 -71.5t73.5 -168t-75 -167.5t-161 -71h-7l258 -272h-43l-227 238v-238h-32v750zM107 301h18q81 0 143 62t62 147t-64 148t-146 63h-13v-420z" />
    <glyph glyph-name="S" unicode="S" horiz-adv-x="498" 
d="M314.5 710q-39.5 24 -88.5 24t-83.5 -30.5t-34.5 -83.5v-5q0 -63 70 -115q30 -22 67.5 -43.5t75 -46t68 -52t50 -67.5t19.5 -88v-10q0 -95 -64.5 -151t-159.5 -56q-125 0 -194 103v54q26 -57 76.5 -92.5t125.5 -35.5t130 48t55 128v6q0 50 -26 91.5t-65 68t-85 55.5
t-85 54t-65 63t-26 83v7q0 70 45 107t111 37q92 0 146 -68v-51q-23 42 -62.5 66z" />
    <glyph glyph-name="T" unicode="T" horiz-adv-x="417" 
d="M397 750v-29h-171v-721h-33v721h-173v29h377z" />
    <glyph glyph-name="U" unicode="U" horiz-adv-x="597" 
d="M304 -14h-10q-92 0 -155.5 64t-63.5 161v539h33v-538q0 -85 55 -141t136 -56t135.5 55.5t54.5 141.5v538h33v-537q0 -98 -63.5 -162.5t-154.5 -64.5z" />
    <glyph glyph-name="V" unicode="V" horiz-adv-x="786" 
d="M393 -17l-373 767h36l340 -695l338 695h32z" />
    <glyph glyph-name="W" unicode="W" horiz-adv-x="1023" 
d="M349 -13l-329 763h37l297 -687l139 325l-155 362h36l139 -329l143 329h28l-156 -361l142 -329l303 690h27l-333 -763l-159 366z" />
    <glyph glyph-name="X" unicode="X" horiz-adv-x="483" 
d="M419 750l-161 -330l205 -420h-37l-187 385l-188 -385h-31l203 419l-165 331h38l146 -297l145 297h32z" />
    <glyph glyph-name="Y" unicode="Y" horiz-adv-x="524" 
d="M281 0h-33v300l-228 450h36l211 -415l207 415h30l-223 -450v-300z" />
    <glyph glyph-name="Z" unicode="Z" horiz-adv-x="427" 
d="M402 29v-29h-377l330 721h-330v29h380l-331 -721h328z" />
    <glyph glyph-name="bracketleft" unicode="[" horiz-adv-x="215" 
d="M105 787v-841h95v-29h-128v899h128v-29h-95z" />
    <glyph glyph-name="backslash" unicode="\" horiz-adv-x="646" 
d="M25 748h38l558 -748h-38z" />
    <glyph glyph-name="bracketright" unicode="]" horiz-adv-x="215" 
d="M112 -54v841h-97v29h130v-899h-130v29h97z" />
    <glyph glyph-name="asciicircum" unicode="^" horiz-adv-x="330" 
d="M177 679l138 -139h-41l-108 108l-109 -108h-42l140 139h22z" />
    <glyph glyph-name="underscore" unicode="_" horiz-adv-x="358" 
d="M333 0h-308v31h308v-31z" />
    <glyph glyph-name="grave" unicode="`" horiz-adv-x="211" 
d="M15 644h41l140 -115h-42z" />
    <glyph glyph-name="a" unicode="a" horiz-adv-x="569" 
d="M509 450v-450h-32v112q-28 -57 -84 -90t-120 -33q-98 0 -168 69.5t-70 166.5t70 166.5t168 69.5q64 0 122.5 -34t81.5 -90v113h32zM128.5 78.5q61.5 -61.5 146 -61.5t144.5 61.5t60 146t-60.5 146.5t-144.5 62t-145.5 -62.5t-61.5 -146.5t61.5 -145.5z" />
    <glyph glyph-name="b" unicode="b" horiz-adv-x="569" 
d="M60 0v750h32v-410q27 55 84.5 88t119.5 33q99 0 168.5 -69.5t69.5 -166.5t-69.5 -166.5t-168.5 -69.5q-60 0 -117 32.5t-87 87.5v-109h-32zM151.5 78.5q61.5 -61.5 146 -61.5t144.5 61.5t60 146t-60.5 146.5t-144.5 62t-145.5 -62.5t-61.5 -146.5t61.5 -145.5z" />
    <glyph glyph-name="c" unicode="c" horiz-adv-x="476" 
d="M278 -13h-9q-96 0 -165 71t-69 166.5t70 165t172 69.5t174 -77v-51q-31 46 -78.5 73t-99.5 27q-83 0 -144.5 -61.5t-61.5 -146.5t61.5 -146.5t144.5 -61.5q52 0 99.5 27t78.5 74v-52q-70 -77 -173 -77z" />
    <glyph glyph-name="d" unicode="d" horiz-adv-x="569" 
d="M509 750v-750h-32v109q-30 -55 -87 -87.5t-117 -32.5q-99 0 -168.5 69.5t-69.5 166.5t69.5 166.5t168.5 69.5q62 0 119.5 -33t84.5 -88v410h32zM127 78.5q60 -61.5 144.5 -61.5t146 61.5t61.5 145.5t-61.5 146.5t-145.5 62.5t-144.5 -62t-60.5 -146.5t60 -146z" />
    <glyph glyph-name="e" unicode="e" horiz-adv-x="495" 
d="M285 -12h-9q-95 0 -165.5 71.5t-70.5 166.5t70 164.5t173 69.5t177 -82l-314 -310q65 -52 125 -52t107.5 27.5t78.5 73.5v-51q-71 -78 -172 -78zM133.5 370.5q-61.5 -61.5 -61.5 -141.5t53 -140l291 289q-62 54 -141.5 54t-141 -61.5z" />
    <glyph glyph-name="f" unicode="f" horiz-adv-x="252" 
d="M231 632v-28q-58 0 -98.5 -40t-40.5 -101v-263h140v-28h-140v-172h-32v463q0 74 50 121.5t121 47.5z" />
    <glyph glyph-name="g" unicode="g" horiz-adv-x="570" 
d="M478 450h32v-408q0 -116 -64 -183t-168 -67q-57 0 -111 26t-84 68v46q26 -48 81.5 -80t113.5 -32q88 0 144 59.5t56 162.5v67q-27 -55 -85 -88t-120 -33q-98 0 -168 69.5t-70 166.5t70 166.5t168 69.5q65 0 121.5 -32.5t83.5 -89.5v112zM128.5 77.5q61.5 -61.5 146 -61.5
t144.5 61.5t60 146.5t-60 146.5t-144.5 61.5t-146 -61.5t-61.5 -146.5t61.5 -146.5z" />
    <glyph glyph-name="h" unicode="h" horiz-adv-x="514" 
d="M92 0h-32v749h32v-386q50 98 173 98q84 0 141.5 -58t57.5 -141v-262h-32v262q0 70 -49 120.5t-118 50.5t-121 -51t-52 -120v-262z" />
    <glyph glyph-name="i" unicode="i" horiz-adv-x="178" 
d="M105 449v-449h-32v449h32zM60 586q0 27 29 27t29 -27t-29 -27t-29 27z" />
    <glyph glyph-name="j" unicode="j" horiz-adv-x="242" 
d="M-5 -198v28q59 0 100 40t41 101v479h32v-479q0 -74 -50.5 -121.5t-122.5 -47.5zM124 586q0 27 29 27t29 -27t-29 -27t-29 27z" />
    <glyph glyph-name="k" unicode="k" horiz-adv-x="388" 
d="M60 748h32v-454l178 156h41l-206 -180l258 -270h-43l-228 237v-237h-32v748z" />
    <glyph glyph-name="l" unicode="l" horiz-adv-x="251" 
d="M231 19v-28q-71 0 -121 47.5t-50 121.5v590h32v-590q0 -61 40.5 -101t98.5 -40z" />
    <glyph glyph-name="m" unicode="m" horiz-adv-x="746" 
d="M429.5 432q42.5 29 103.5 29t107 -44t46 -119v-298h-32v298q0 58 -38 96.5t-91.5 38.5t-95 -40t-41.5 -93v-300h-32v300q0 54 -38 93.5t-92 39.5t-94 -40t-40 -93v-300h-32v450h32v-63q20 30 59.5 52t82 22t81.5 -29.5t57 -76.5q15 48 57.5 77z" />
    <glyph glyph-name="n" unicode="n" horiz-adv-x="524" 
d="M92 0h-32v450h32v-91q51 102 174 102q84 0 141 -58t57 -141v-262h-32v262q0 69 -48.5 120t-117.5 51t-121.5 -51t-52.5 -120v-262z" />
    <glyph glyph-name="o" unicode="o" horiz-adv-x="546" 
d="M104 60.5q-69 71.5 -69 166.5t70 164.5t168.5 69.5t168 -69.5t69.5 -165t-68 -166.5t-165 -71h-9q-96 0 -165 71.5zM418.5 371q-60.5 62 -144.5 62t-145.5 -62.5t-61.5 -146.5t61.5 -145.5t146 -61.5t144.5 61.5t60 146t-60.5 146.5z" />
    <glyph glyph-name="p" unicode="p" horiz-adv-x="569" 
d="M60 -200v650h32v-110q27 55 84.5 88t119.5 33q99 0 168.5 -69.5t69.5 -166.5t-69.5 -166.5t-168.5 -69.5q-60 0 -117 32.5t-87 87.5v-309h-32zM151.5 78.5q61.5 -61.5 146 -61.5t144.5 61.5t60 146t-60.5 146.5t-144.5 62t-145.5 -62.5t-61.5 -146.5t61.5 -145.5z" />
    <glyph glyph-name="q" unicode="q" horiz-adv-x="569" 
d="M509 450v-650h-32v312q-28 -57 -84 -90t-120 -33q-98 0 -168 69.5t-70 166.5t70 166.5t168 69.5q64 0 122.5 -34t81.5 -90v113h32zM128.5 78.5q61.5 -61.5 146 -61.5t144.5 61.5t60 146t-60.5 146.5t-144.5 62t-145.5 -62.5t-61.5 -146.5t61.5 -145.5z" />
    <glyph glyph-name="r" unicode="r" horiz-adv-x="348" 
d="M226 433q-53 0 -93.5 -40t-40.5 -93v-300h-32v450h32v-67q18 34 56 56t85 22t90 -32v-40q-44 44 -97 44z" />
    <glyph glyph-name="s" unicode="s" horiz-adv-x="344" 
d="M158 434q-26 0 -46 -17t-20 -42t22.5 -46t54 -38.5t63.5 -37.5t54.5 -51t22.5 -71q0 -59 -44.5 -100.5t-107.5 -41.5q-40 0 -74.5 17.5t-50.5 46.5v48q38 -84 122 -84q52 0 87.5 32t35.5 71.5t-22.5 66.5t-54.5 46t-63.5 37.5t-54 45t-22.5 62t28.5 60t73.5 24.5t77 -35
v-41q-32 48 -81 48z" />
    <glyph glyph-name="t" unicode="t" horiz-adv-x="241" 
d="M221 22v-28q-71 0 -121 47.5t-50 121.5v468h32v-182h138v-28h-138v-258q0 -61 40.5 -101t98.5 -40z" />
    <glyph glyph-name="u" unicode="u" horiz-adv-x="504" 
d="M422 450h32v-450h-32v91q-51 -102 -174 -102q-84 0 -141 58t-57 141v262h32v-262q0 -69 48.5 -120t117.5 -51t121.5 51t52.5 120v262z" />
    <glyph glyph-name="v" unicode="v" horiz-adv-x="493" 
d="M439 450h29l-221 -463l-222 463h35l190 -395z" />
    <glyph glyph-name="w" unicode="w" horiz-adv-x="684" 
d="M25 450h33l185 -393l87 183l-97 208h32l81 -177l83 179h30l-98 -210l86 -185l183 394h29l-213 -460l-102 219l-103 -219z" />
    <glyph glyph-name="x" unicode="x" horiz-adv-x="433" 
d="M232 273l181 -273h-37l-162 245l-161 -245h-32l177 270l-119 180h37l100 -152l100 152h32z" />
    <glyph glyph-name="y" unicode="y" horiz-adv-x="504" 
d="M422 450h32v-436q0 -89 -62 -151t-152 -62q-108 0 -171 83l2 50q28 -48 73.5 -76.5t95.5 -28.5q74 0 128 53.5t54 128.5v76q-49 -98 -171 -98q-83 0 -142 58.5t-59 140.5v262h32v-262q0 -69 50.5 -120t119.5 -51t119.5 51t50.5 120v262z" />
    <glyph glyph-name="z" unicode="z" horiz-adv-x="363" 
d="M335 28v-28h-310l256 422h-229v28h286l-257 -422h254z" />
    <glyph glyph-name="braceleft" unicode="{" horiz-adv-x="257" 
d="M167 667v-161q0 -39 -17.5 -74.5t-49.5 -56.5q67 -44 67 -129v-169q0 -40 19 -72t51 -50v-30q-45 21 -74 63t-29 89v169q0 44 -29 80.5t-71 48.5q42 12 71 49.5t29 81.5v161q0 47 29 87.5t74 62.5v-30q-32 -16 -51 -48t-19 -72z" />
    <glyph glyph-name="bar" unicode="|" horiz-adv-x="183" 
d="M75 0v748h33v-748h-33z" />
    <glyph glyph-name="braceright" unicode="}" horiz-adv-x="257" 
d="M125 667v-161q0 -43 29 -81t69 -50q-40 -12 -69 -48.5t-29 -80.5v-169q0 -46 -30 -89t-75 -63v30q72 39 72 122v169q0 86 66 129q-31 20 -48.5 56t-17.5 75v161q0 40 -19.5 72t-52.5 48v30q46 -22 75.5 -62.5t29.5 -87.5z" />
    <glyph glyph-name="asciitilde" unicode="~" horiz-adv-x="533" 
d="M458 360q-40 -46 -80.5 -46t-108 36t-105.5 36q-49 -4 -89 -70v51q39 44 88 48q47 0 112.5 -36t103.5 -36t79 65v-48z" />
    <glyph glyph-name="exclamdown" unicode="&#xa1;" horiz-adv-x="226" 
d="M131 0h-33v650h33v-650zM80 726q0 31 33 31t33 -31t-33 -31t-33 31z" />
    <glyph glyph-name="cent" unicode="&#xa2;" horiz-adv-x="541" 
d="M286 -155v146h-4q-106 0 -169 69.5t-63 164t61 163t170 68.5h5v108h34v-108h5q112 0 181 -74v-51q-31 45 -79.5 71t-101.5 26h-5v-409h5q54 0 102 26t79 71v-52q-32 -35 -80.5 -54t-101.5 -19h-4v-146h-34zM286 428h-5q-94 0 -145 -60t-51 -145t51 -144.5t145 -59.5h5
v409z" />
    <glyph glyph-name="sterling" unicode="&#xa3;" horiz-adv-x="529" 
d="M177 312h202v-28h-201v-183q47 0 112.5 -36t103.5 -36t79 65h36q-59 -96 -117 -96q-40 0 -107.5 36.5t-106.5 36.5h-33q-49 -4 -89 -71h-36q50 93 125 101v183h-92v28h92v236q0 91 50 150.5t131 59.5h9q68 0 125 -50v-35q-24 27 -59 43.5t-71 16.5q-72 0 -112.5 -52
t-40.5 -133v-236z" />
    <glyph glyph-name="currency" unicode="&#xa4;" horiz-adv-x="843" 
d="M159 664q109 97 258.5 97t264.5 -103l89 90l22 -26l-87 -87q102 -117 102 -263t-100 -259l85 -83l-24 -25l-83 83q-117 -100 -268 -100t-257 100l-86 -86l-24 25l85 86q-101 108 -101 258t100 269l-85 83l25 26zM425 728q-150 0 -253 -103t-103 -254t103.5 -251t246 -100
t250.5 103.5t108 253.5t-101 250.5t-251 100.5z" />
    <glyph glyph-name="yen" unicode="&#xa5;" horiz-adv-x="534" 
d="M424 174h-138v-174h-33v174h-140v29h140v99h-140v31h123l-211 417h35l211 -415l207 415h31l-207 -417h122v-31h-138v-99h138v-29z" />
    <glyph glyph-name="brokenbar" unicode="&#xa6;" horiz-adv-x="215" 
d="M125 0h-35v283h35v-283zM125 466h-35v284h35v-284z" />
    <glyph glyph-name="section" unicode="&#xa7;" horiz-adv-x="426" 
d="M50 375q0 60 42 103.5t102 47.5q-44 27 -66.5 52t-22.5 68t35.5 76t84 33t89.5 -35v-53q-39 60 -82.5 60t-69 -24t-25.5 -61q0 -24 11 -36.5t16.5 -19t18 -15t17 -12t18.5 -11t15 -8.5l28 -15q70 -40 89 -67q26 -37 26 -89.5t-42 -96.5t-103 -50q44 -27 67 -52t23 -69
t-36.5 -76.5t-89.5 -32.5t-90 37v55q38 -63 90 -63q39 0 66 23.5t27 61.5q0 55 -97 105l-26 14q-83 43 -105 94q-10 25 -10 56zM211 499q-52 0 -89 -36.5t-37 -88.5t39 -87.5t91 -35.5t89 36.5t37 88t-39 87.5t-91 36z" />
    <glyph glyph-name="dieresis" unicode="&#xa8;" horiz-adv-x="192" 
d="M15 585q0 27 29 27t29 -27t-29 -27t-29 27zM122 585q0 27 27.5 27t27.5 -27t-27.5 -27t-27.5 27z" />
    <glyph glyph-name="copyright" unicode="&#xa9;" horiz-adv-x="890" 
d="M452 -13h-15q-155 0 -268.5 117t-113.5 273.5t115 271t276 114.5t275 -114t114 -271.5t-113 -274t-270 -116.5zM697.5 628.5q-104.5 105.5 -252 105.5t-252.5 -105.5t-105 -253t105 -253.5t252 -106t252 106t105 253.5t-104.5 253zM453 140h-15q-93 0 -161.5 71.5
t-68.5 166.5t70 164.5t172 69.5t174 -77v-51q-31 46 -78.5 73t-99.5 27q-83 0 -144.5 -61.5t-61.5 -146.5t61.5 -146.5t144.5 -61.5q52 0 99.5 27t78.5 74v-52q-70 -77 -171 -77z" />
    <glyph glyph-name="guillemotleft" unicode="&#xab;" horiz-adv-x="483" 
d="M70 240l218 193v-43l-184 -163l184 -164v-45l-218 196v26zM245 240l218 193v-43l-184 -163l184 -164v-45l-218 196v26z" />
    <glyph glyph-name="logicalnot" unicode="&#xac;" horiz-adv-x="410" 
d="M329 188v94h-279v31h310v-125h-31z" />
    <glyph glyph-name="uni00AD" unicode="&#xad;" horiz-adv-x="411" 
d="M361 282h-311v31h311v-31z" />
    <glyph glyph-name="registered" unicode="&#xae;" horiz-adv-x="890" 
d="M452 -13h-15q-155 0 -268.5 117t-113.5 273.5t115 271t276 114.5t275 -114t114 -271.5t-113 -274t-270 -116.5zM697.5 628.5q-104.5 105.5 -252 105.5t-252.5 -105.5t-105 -253t105 -253.5t252 -106t252 106t105 253.5t-104.5 253zM368 309v-155h-31v450h99
q61 0 104.5 -43.5t43.5 -100t-31 -96.5t-80 -52l116 -158h-41l-110 155h-70zM368 577v-241h70q46 0 81.5 36.5t35.5 84t-35.5 84t-81.5 36.5h-70z" />
    <glyph glyph-name="macron" unicode="&#xaf;" horiz-adv-x="341" 
d="M272 566h-197v28h197v-28z" />
    <glyph glyph-name="degree" unicode="&#xb0;" horiz-adv-x="191" 
d="M97 600h-4q-30 0 -51.5 22.5t-21.5 53t22 52.5t53.5 22t53.5 -22t22 -52.5t-22 -53t-52 -22.5zM130.5 711q-14.5 15 -35 15t-35.5 -15.5t-15 -35.5t15 -35.5t35.5 -15.5t35 15t14.5 36t-14.5 36z" />
    <glyph glyph-name="plusminus" unicode="&#xb1;" horiz-adv-x="451" 
d="M210 387h-140v31h140v139h33v-139h138v-31h-138v-134h-33v134zM381 168h-311v31h311v-31z" />
    <glyph glyph-name="acute" unicode="&#xb4;" horiz-adv-x="211" 
d="M155 644h41l-139 -115h-42z" />
    <glyph glyph-name="mu" unicode="&#xb5;" horiz-adv-x="555" 
d="M75 -200v650h33v-262q0 -69 50.5 -120t119.5 -51t119.5 51t50.5 120v262h32v-450h-32v87q-27 -44 -73.5 -71t-98.5 -27t-97 25t-72 68v-282h-32z" />
    <glyph glyph-name="paragraph" unicode="&#xb6;" horiz-adv-x="564" 
d="M271 -200h-31v655h-20q-61 0 -103 43.5t-42 104t43 104t105 43.5h311v-29h-90v-921h-31v921h-142v-921z" />
    <glyph glyph-name="periodcentered" unicode="&#xb7;" horiz-adv-x="212" 
d="M75 292q0 31 31 31t31 -31t-31 -31t-31 31z" />
    <glyph glyph-name="cedilla" unicode="&#xb8;" horiz-adv-x="142" 
d="M15 -75v84h25v-58h10q32 0 54.5 -22t22.5 -52v-4q0 -30 -22 -51.5t-55 -21.5h-35v25h35q23 0 38 14.5t15 35.5t-15 35.5t-38 14.5h-35z" />
    <glyph glyph-name="guillemotright" unicode="&#xbb;" horiz-adv-x="483" 
d="M195 433l218 -193v-26l-218 -196v45l184 164l-184 163v43zM20 433l218 -193v-26l-218 -196v45l184 164l-184 163v43z" />
    <glyph glyph-name="questiondown" unicode="&#xbf;" horiz-adv-x="626" 
d="M571 244q-6 -111 -76 -181t-181.5 -70t-185 73t-73.5 169.5t71 184.5q69 68 168 74v165h32v-194h-14q-100 0 -162.5 -66t-62.5 -158.5t65.5 -155.5t162.5 -63t157.5 60.5t64.5 161.5h34zM342 731q0 -31 -34.5 -31t-34.5 31t34.5 31t34.5 -31z" />
    <glyph glyph-name="Agrave" unicode="&#xc0;" horiz-adv-x="809" 
d="M404 768l375 -768h-35l-142 286h-401l-140 -286h-31zM401 699l-187 -384h376zM314 944h41l140 -115h-42z" />
    <glyph glyph-name="Aacute" unicode="&#xc1;" horiz-adv-x="809" 
d="M404 768l375 -768h-35l-142 286h-401l-140 -286h-31zM401 699l-187 -384h376zM454 944h41l-139 -115h-42z" />
    <glyph glyph-name="Acircumflex" unicode="&#xc2;" horiz-adv-x="809" 
d="M404 768l375 -768h-35l-142 286h-401l-140 -286h-31zM401 699l-187 -384h376zM421 944l132 -115h-41l-107 91l-106 -91h-42l134 115h30z" />
    <glyph glyph-name="Atilde" unicode="&#xc3;" horiz-adv-x="809" 
d="M404 768l375 -768h-35l-142 286h-401l-140 -286h-31zM401 699l-187 -384h376zM485 847q-29 0 -78.5 27.5t-79.5 27t-62 -53.5h-31q39 80 95 80h9q30 0 75 -26.5t72.5 -26.5t58.5 49h31q-47 -77 -90 -77z" />
    <glyph glyph-name="Adieresis" unicode="&#xc4;" horiz-adv-x="809" 
d="M404 768l375 -768h-35l-142 286h-401l-140 -286h-31zM401 699l-187 -384h376zM323 885q0 27 29 27t29 -27t-29 -27t-29 27zM430 885q0 27 27.5 27t27.5 -27t-27.5 -27t-27.5 27z" />
    <glyph glyph-name="Aring" unicode="&#xc5;" horiz-adv-x="809" 
d="M404 768l375 -768h-35l-142 286h-401l-140 -286h-31zM401 699l-187 -384h376zM406 812h-4q-30 0 -51.5 22.5t-21.5 53t22 52.5t53.5 22t53.5 -22t22 -52.5t-22 -53t-52 -22.5zM439.5 923q-14.5 15 -35 15t-35.5 -15.5t-15 -35.5t15 -35.5t35.5 -15.5t35 15t14.5 36
t-14.5 36z" />
    <glyph glyph-name="AE" unicode="&#xc6;" horiz-adv-x="691" 
d="M666 750v-29h-236v-405h197v-29h-197v-258h236v-29h-269v286h-201l-140 -286h-31l372 750h269zM397 315v377l-188 -377h188z" />
    <glyph glyph-name="Ccedilla" unicode="&#xc7;" horiz-adv-x="718" 
d="M417 -75v65q-149 8 -255.5 123.5t-106.5 269t115 268t275 114.5q107 0 203 -56v-37q-94 64 -203 64q-147 0 -252 -105.5t-105 -253t105 -253.5t252 -106q109 0 203 64v-37q-91 -56 -198 -56h-8v-38h10q32 0 54.5 -22t22.5 -52v-4q0 -30 -22 -51.5t-55 -21.5h-35v25h35
q23 0 38 14.5t15 35.5t-15 35.5t-38 14.5h-35z" />
    <glyph glyph-name="Egrave" unicode="&#xc8;" horiz-adv-x="389" 
d="M85 750h269v-29h-236v-408h197v-29h-197v-255h236v-29h-269v750zM131 944h41l140 -115h-42z" />
    <glyph glyph-name="Eacute" unicode="&#xc9;" horiz-adv-x="389" 
d="M85 750h269v-29h-236v-408h197v-29h-197v-255h236v-29h-269v750zM270 944h41l-139 -115h-42z" />
    <glyph glyph-name="Ecircumflex" unicode="&#xca;" horiz-adv-x="389" 
d="M85 750h269v-29h-236v-408h197v-29h-197v-255h236v-29h-269v750zM238 944l132 -115h-41l-107 91l-106 -91h-42l134 115h30z" />
    <glyph glyph-name="Edieresis" unicode="&#xcb;" horiz-adv-x="389" 
d="M85 750h269v-29h-236v-408h197v-29h-197v-255h236v-29h-269v750zM137 885q0 27 29 27t29 -27t-29 -27t-29 27zM244 885q0 27 27.5 27t27.5 -27t-27.5 -27t-27.5 27z" />
    <glyph glyph-name="Igrave" unicode="&#xcc;" horiz-adv-x="213" 
d="M90 750h33v-750h-33v750zM16 944h41l140 -115h-42z" />
    <glyph glyph-name="Iacute" unicode="&#xcd;" horiz-adv-x="213" 
d="M90 750h33v-750h-33v750zM156 944h41l-139 -115h-42z" />
    <glyph glyph-name="Icircumflex" unicode="&#xce;" horiz-adv-x="213" 
d="M90 750h33v-750h-33v750zM123 944l132 -115h-41l-107 91l-106 -91h-42l134 115h30z" />
    <glyph glyph-name="Idieresis" unicode="&#xcf;" horiz-adv-x="213" 
d="M90 750h33v-750h-33v750zM25 885q0 27 29 27t29 -27t-29 -27t-29 27zM132 885q0 27 27.5 27t27.5 -27t-27.5 -27t-27.5 27z" />
    <glyph glyph-name="Eth" unicode="&#xd0;" horiz-adv-x="526" 
d="M75 750h32q168 0 271 -110.5t103 -265t-102.5 -264.5t-271.5 -110h-32v361h-60v29h60v360zM115 720h-8v-330h124v-29h-124v-330h8q146 0 239.5 101t93.5 242.5t-93.5 243.5t-239.5 102z" />
    <glyph glyph-name="Ntilde" unicode="&#xd1;" horiz-adv-x="751" 
d="M637 750h29v-761l-552 679v-668h-29v761l552 -678v667zM456 847q-29 0 -78.5 27.5t-79.5 27t-62 -53.5h-31q39 80 95 80h9q30 0 75 -26.5t72.5 -26.5t58.5 49h31q-47 -77 -90 -77z" />
    <glyph glyph-name="Ograve" unicode="&#xd2;" horiz-adv-x="890" 
d="M168.5 104q-113.5 117 -113.5 273.5t115 271t276 114.5t275 -114t114 -271.5t-113 -274t-270 -116.5h-15q-155 0 -268.5 117zM697.5 628.5q-104.5 105.5 -252 105.5t-252.5 -105.5t-105 -253t105 -253.5t252 -106t252 106t105 253.5t-104.5 253zM354 944h41l140 -115h-42
z" />
    <glyph glyph-name="Oacute" unicode="&#xd3;" horiz-adv-x="890" 
d="M168.5 104q-113.5 117 -113.5 273.5t115 271t276 114.5t275 -114t114 -271.5t-113 -274t-270 -116.5h-15q-155 0 -268.5 117zM697.5 628.5q-104.5 105.5 -252 105.5t-252.5 -105.5t-105 -253t105 -253.5t252 -106t252 106t105 253.5t-104.5 253zM494 944h41l-139 -115
h-42z" />
    <glyph glyph-name="Ocircumflex" unicode="&#xd4;" horiz-adv-x="890" 
d="M168.5 104q-113.5 117 -113.5 273.5t115 271t276 114.5t275 -114t114 -271.5t-113 -274t-270 -116.5h-15q-155 0 -268.5 117zM697.5 628.5q-104.5 105.5 -252 105.5t-252.5 -105.5t-105 -253t105 -253.5t252 -106t252 106t105 253.5t-104.5 253zM461 944l132 -115h-41
l-107 91l-106 -91h-42l134 115h30z" />
    <glyph glyph-name="Otilde" unicode="&#xd5;" horiz-adv-x="890" 
d="M168.5 104q-113.5 117 -113.5 273.5t115 271t276 114.5t275 -114t114 -271.5t-113 -274t-270 -116.5h-15q-155 0 -268.5 117zM697.5 628.5q-104.5 105.5 -252 105.5t-252.5 -105.5t-105 -253t105 -253.5t252 -106t252 106t105 253.5t-104.5 253zM525 847
q-29 0 -78.5 27.5t-79.5 27t-62 -53.5h-31q39 80 95 80h9q30 0 75 -26.5t72.5 -26.5t58.5 49h31q-47 -77 -90 -77z" />
    <glyph glyph-name="Odieresis" unicode="&#xd6;" horiz-adv-x="890" 
d="M168.5 104q-113.5 117 -113.5 273.5t115 271t276 114.5t275 -114t114 -271.5t-113 -274t-270 -116.5h-15q-155 0 -268.5 117zM697.5 628.5q-104.5 105.5 -252 105.5t-252.5 -105.5t-105 -253t105 -253.5t252 -106t252 106t105 253.5t-104.5 253zM364 885q0 27 29 27
t29 -27t-29 -27t-29 27zM471 885q0 27 27.5 27t27.5 -27t-27.5 -27t-27.5 27z" />
    <glyph glyph-name="multiply" unicode="&#xd7;" horiz-adv-x="393" 
d="M174 405l-99 99l22 22l99 -99l98 98l24 -23l-99 -99l98 -97l-22 -22l-98 97l-94 -94l-24 23z" />
    <glyph glyph-name="Oslash" unicode="&#xd8;" horiz-adv-x="880" 
d="M830 375q0 -155 -113 -271.5t-270 -116.5h-15q-116 0 -211 67l-40 -54h-37l54 72q-69 56 -108.5 135t-39.5 168q0 159 115 273.5t275 114.5q121 0 221 -69l40 54h39l-55 -73q68 -55 106.5 -133t38.5 -167zM440 734q-147 0 -252 -105.5t-105 -253.5q0 -83 35.5 -155.5
t97.5 -123.5l427 574q-94 64 -203 64zM797 375q0 82 -34.5 153.5t-95.5 122.5l-428 -572q93 -63 201 -63q147 0 252 106t105 253z" />
    <glyph glyph-name="Ugrave" unicode="&#xd9;" horiz-adv-x="617" 
d="M314 -14h-10q-92 0 -155.5 64t-63.5 161v539h33v-538q0 -85 55 -141t136 -56t135.5 55.5t54.5 141.5v538h33v-537q0 -98 -63.5 -162.5t-154.5 -64.5zM218 944h41l140 -115h-42z" />
    <glyph glyph-name="Uacute" unicode="&#xda;" horiz-adv-x="617" 
d="M314 -14h-10q-92 0 -155.5 64t-63.5 161v539h33v-538q0 -85 55 -141t136 -56t135.5 55.5t54.5 141.5v538h33v-537q0 -98 -63.5 -162.5t-154.5 -64.5zM358 944h41l-139 -115h-42z" />
    <glyph glyph-name="Ucircumflex" unicode="&#xdb;" horiz-adv-x="617" 
d="M314 -14h-10q-92 0 -155.5 64t-63.5 161v539h33v-538q0 -85 55 -141t136 -56t135.5 55.5t54.5 141.5v538h33v-537q0 -98 -63.5 -162.5t-154.5 -64.5zM324 944l132 -115h-41l-107 91l-106 -91h-42l134 115h30z" />
    <glyph glyph-name="Udieresis" unicode="&#xdc;" horiz-adv-x="617" 
d="M314 -14h-10q-92 0 -155.5 64t-63.5 161v539h33v-538q0 -85 55 -141t136 -56t135.5 55.5t54.5 141.5v538h33v-537q0 -98 -63.5 -162.5t-154.5 -64.5zM227 885q0 27 29 27t29 -27t-29 -27t-29 27zM334 885q0 27 27.5 27t27.5 -27t-27.5 -27t-27.5 27z" />
    <glyph glyph-name="Yacute" unicode="&#xdd;" horiz-adv-x="544" 
d="M291 0h-33v300l-228 450h36l211 -415l207 415h30l-223 -450v-300zM321 944h41l-139 -115h-42z" />
    <glyph glyph-name="Thorn" unicode="&#xde;" horiz-adv-x="410" 
d="M75 0v749h32v-118h9q97 0 170.5 -71.5t73.5 -168.5t-76 -167.5t-168 -70.5h-9v-153h-32zM107 602v-420h9q84 0 148 61t64 147t-64 149t-148 63h-9z" />
    <glyph glyph-name="germandbls" unicode="&#xdf;" horiz-adv-x="572" 
d="M317.5 666q41.5 -41 41.5 -102t-56 -108q96 -4 162.5 -71t66.5 -162.5t-69 -164t-166 -68.5q-47 0 -95 20v34q46 -25 95 -25q83 0 144 60.5t61 144t-60.5 143.5t-144.5 60h-81v29q45 0 78 33.5t33 78t-33 77.5t-77 33t-77 -33t-33 -78v-567h-32v567q0 58 41.5 99
t100.5 41t100.5 -41z" />
    <glyph glyph-name="agrave" unicode="&#xe0;" horiz-adv-x="589" 
d="M519 450v-450h-32v112q-28 -57 -84 -90t-120 -33q-98 0 -168 69.5t-70 166.5t70 166.5t168 69.5q64 0 122.5 -34t81.5 -90v113h32zM138.5 78.5q61.5 -61.5 146 -61.5t144.5 61.5t60 146t-60.5 146.5t-144.5 62t-145.5 -62.5t-61.5 -146.5t61.5 -145.5zM204 644h41
l140 -115h-42z" />
    <glyph glyph-name="aacute" unicode="&#xe1;" horiz-adv-x="589" 
d="M519 450v-450h-32v112q-28 -57 -84 -90t-120 -33q-98 0 -168 69.5t-70 166.5t70 166.5t168 69.5q64 0 122.5 -34t81.5 -90v113h32zM138.5 78.5q61.5 -61.5 146 -61.5t144.5 61.5t60 146t-60.5 146.5t-144.5 62t-145.5 -62.5t-61.5 -146.5t61.5 -145.5zM344 644h41
l-139 -115h-42z" />
    <glyph glyph-name="acircumflex" unicode="&#xe2;" horiz-adv-x="589" 
d="M519 450v-450h-32v112q-28 -57 -84 -90t-120 -33q-98 0 -168 69.5t-70 166.5t70 166.5t168 69.5q64 0 122.5 -34t81.5 -90v113h32zM138.5 78.5q61.5 -61.5 146 -61.5t144.5 61.5t60 146t-60.5 146.5t-144.5 62t-145.5 -62.5t-61.5 -146.5t61.5 -145.5zM310 644l132 -115
h-41l-107 91l-106 -91h-42l134 115h30z" />
    <glyph glyph-name="atilde" unicode="&#xe3;" horiz-adv-x="589" 
d="M519 450v-450h-32v112q-28 -57 -84 -90t-120 -33q-98 0 -168 69.5t-70 166.5t70 166.5t168 69.5q64 0 122.5 -34t81.5 -90v113h32zM138.5 78.5q61.5 -61.5 146 -61.5t144.5 61.5t60 146t-60.5 146.5t-144.5 62t-145.5 -62.5t-61.5 -146.5t61.5 -145.5zM375 547
q-29 0 -78.5 27.5t-79.5 27t-62 -53.5h-31q39 80 95 80h9q30 0 75 -26.5t72.5 -26.5t58.5 49h31q-47 -77 -90 -77z" />
    <glyph glyph-name="adieresis" unicode="&#xe4;" horiz-adv-x="589" 
d="M519 450v-450h-32v112q-28 -57 -84 -90t-120 -33q-98 0 -168 69.5t-70 166.5t70 166.5t168 69.5q64 0 122.5 -34t81.5 -90v113h32zM138.5 78.5q61.5 -61.5 146 -61.5t144.5 61.5t60 146t-60.5 146.5t-144.5 62t-145.5 -62.5t-61.5 -146.5t61.5 -145.5zM213 585
q0 27 29 27t29 -27t-29 -27t-29 27zM320 585q0 27 27.5 27t27.5 -27t-27.5 -27t-27.5 27z" />
    <glyph glyph-name="aring" unicode="&#xe5;" horiz-adv-x="589" 
d="M519 450v-450h-32v112q-28 -57 -84 -90t-120 -33q-98 0 -168 69.5t-70 166.5t70 166.5t168 69.5q64 0 122.5 -34t81.5 -90v113h32zM138.5 78.5q61.5 -61.5 146 -61.5t144.5 61.5t60 146t-60.5 146.5t-144.5 62t-145.5 -62.5t-61.5 -146.5t61.5 -145.5zM296 512h-4
q-30 0 -51.5 22.5t-21.5 53t22 52.5t53.5 22t53.5 -22t22 -52.5t-22 -53t-52 -22.5zM329.5 623q-14.5 15 -35 15t-35.5 -15.5t-15 -35.5t15 -35.5t35.5 -15.5t35 15t14.5 36t-14.5 36z" />
    <glyph glyph-name="ae" unicode="&#xe6;" horiz-adv-x="932" 
d="M722 -11h-15q-62 0 -115 34t-84 89v-112h-26v105q-32 -54 -87 -85t-117 -31q-98 0 -168 69.5t-70 166.5t70 166.5t168 69.5q62 0 117 -31t87 -85v105h26v-111q31 55 86 88.5t121 33.5q108 0 182 -82l-314 -310q65 -52 125 -52t107.5 27.5t78.5 73.5v-51q-71 -78 -172 -78
zM133.5 78.5q61.5 -61.5 146 -61.5t144.5 61.5t60 146t-60.5 146.5t-144.5 62t-145.5 -62.5t-61.5 -146.5t61.5 -145.5zM569.5 371.5q-61.5 -61.5 -61.5 -141t54 -140.5l291 289q-62 54 -142 54t-141.5 -61.5z" />
    <glyph glyph-name="ccedilla" unicode="&#xe7;" horiz-adv-x="496" 
d="M239 -75v66q-83 14 -138.5 82t-55.5 157.5t70 159t172 69.5t174 -77v-51q-31 46 -78.5 73t-99.5 27q-83 0 -144.5 -61.5t-61.5 -146.5t61.5 -146.5t144.5 -61.5q52 0 99.5 27t78.5 74v-52q-70 -77 -173 -77h-9q-12 0 -15 1v-37h10q32 0 54.5 -22t22.5 -52v-4
q0 -30 -22 -51.5t-55 -21.5h-35v25h35q23 0 38 14.5t15 35.5t-15 35.5t-38 14.5h-35z" />
    <glyph glyph-name="egrave" unicode="&#xe8;" horiz-adv-x="515" 
d="M295 -12h-9q-95 0 -165.5 71.5t-70.5 166.5t70 164.5t173 69.5t177 -82l-314 -310q65 -52 125 -52t107.5 27.5t78.5 73.5v-51q-71 -78 -172 -78zM143.5 370.5q-61.5 -61.5 -61.5 -141.5t53 -140l291 289q-62 54 -141.5 54t-141 -61.5zM167 644h41l140 -115h-42z" />
    <glyph glyph-name="eacute" unicode="&#xe9;" horiz-adv-x="515" 
d="M295 -12h-9q-95 0 -165.5 71.5t-70.5 166.5t70 164.5t173 69.5t177 -82l-314 -310q65 -52 125 -52t107.5 27.5t78.5 73.5v-51q-71 -78 -172 -78zM143.5 370.5q-61.5 -61.5 -61.5 -141.5t53 -140l291 289q-62 54 -141.5 54t-141 -61.5zM307 644h41l-139 -115h-42z" />
    <glyph glyph-name="ecircumflex" unicode="&#xea;" horiz-adv-x="515" 
d="M295 -12h-9q-95 0 -165.5 71.5t-70.5 166.5t70 164.5t173 69.5t177 -82l-314 -310q65 -52 125 -52t107.5 27.5t78.5 73.5v-51q-71 -78 -172 -78zM143.5 370.5q-61.5 -61.5 -61.5 -141.5t53 -140l291 289q-62 54 -141.5 54t-141 -61.5zM273 644l132 -115h-41l-107 91
l-106 -91h-42l134 115h30z" />
    <glyph glyph-name="edieresis" unicode="&#xeb;" horiz-adv-x="515" 
d="M295 -12h-9q-95 0 -165.5 71.5t-70.5 166.5t70 164.5t173 69.5t177 -82l-314 -310q65 -52 125 -52t107.5 27.5t78.5 73.5v-51q-71 -78 -172 -78zM143.5 370.5q-61.5 -61.5 -61.5 -141.5t53 -140l291 289q-62 54 -141.5 54t-141 -61.5zM176 585q0 27 29 27t29 -27t-29 -27
t-29 27zM283 585q0 27 27.5 27t27.5 -27t-27.5 -27t-27.5 27z" />
    <glyph glyph-name="igrave" unicode="&#xec;" horiz-adv-x="198" 
d="M115 449v-449h-32v449h32zM9 644h41l140 -115h-42z" />
    <glyph glyph-name="iacute" unicode="&#xed;" horiz-adv-x="198" 
d="M115 449v-449h-32v449h32zM149 644h41l-139 -115h-42z" />
    <glyph glyph-name="icircumflex" unicode="&#xee;" horiz-adv-x="198" 
d="M115 449v-449h-32v449h32zM115 644l132 -115h-41l-107 91l-106 -91h-42l134 115h30z" />
    <glyph glyph-name="idieresis" unicode="&#xef;" horiz-adv-x="198" 
d="M115 449v-449h-32v449h32zM18 585q0 27 29 27t29 -27t-29 -27t-29 27zM125 585q0 27 27.5 27t27.5 -27t-27.5 -27t-27.5 27z" />
    <glyph glyph-name="eth" unicode="&#xf0;" horiz-adv-x="571" 
d="M531 304v-76q0 -95 -68.5 -168t-161.5 -73h-15q-96 0 -163.5 71t-67.5 166.5t69.5 165t168.5 69.5q64 0 121 -34t86 -94v9q0 157 -208 240l-185 -76v29l147 62l-147 61v29l183 -75l170 72v-31l-133 -56q49 -21 80.5 -40.5t62.5 -52.5q61 -65 61 -198zM147 76.5
q60 -61.5 144.5 -61.5t146 61.5t61.5 145.5t-61.5 146.5t-145.5 62.5t-144.5 -62t-60.5 -146.5t60 -146z" />
    <glyph glyph-name="ntilde" unicode="&#xf1;" horiz-adv-x="544" 
d="M102 0h-32v450h32v-91q51 102 174 102q84 0 141 -58t57 -141v-262h-32v262q0 69 -48.5 120t-117.5 51t-121.5 -51t-52.5 -120v-262zM352 547q-29 0 -78.5 27.5t-79.5 27t-62 -53.5h-31q39 80 95 80h9q30 0 75 -26.5t72.5 -26.5t58.5 49h31q-47 -77 -90 -77z" />
    <glyph glyph-name="ograve" unicode="&#xf2;" horiz-adv-x="566" 
d="M114 60.5q-69 71.5 -69 166.5t70 164.5t168.5 69.5t168 -69.5t69.5 -165t-68 -166.5t-165 -71h-9q-96 0 -165 71.5zM428.5 371q-60.5 62 -144.5 62t-145.5 -62.5t-61.5 -146.5t61.5 -145.5t146 -61.5t144.5 61.5t60 146t-60.5 146.5zM192 644h41l140 -115h-42z" />
    <glyph glyph-name="oacute" unicode="&#xf3;" horiz-adv-x="566" 
d="M114 60.5q-69 71.5 -69 166.5t70 164.5t168.5 69.5t168 -69.5t69.5 -165t-68 -166.5t-165 -71h-9q-96 0 -165 71.5zM428.5 371q-60.5 62 -144.5 62t-145.5 -62.5t-61.5 -146.5t61.5 -145.5t146 -61.5t144.5 61.5t60 146t-60.5 146.5zM332 644h41l-139 -115h-42z" />
    <glyph glyph-name="ocircumflex" unicode="&#xf4;" horiz-adv-x="566" 
d="M114 60.5q-69 71.5 -69 166.5t70 164.5t168.5 69.5t168 -69.5t69.5 -165t-68 -166.5t-165 -71h-9q-96 0 -165 71.5zM428.5 371q-60.5 62 -144.5 62t-145.5 -62.5t-61.5 -146.5t61.5 -145.5t146 -61.5t144.5 61.5t60 146t-60.5 146.5zM299 644l132 -115h-41l-107 91
l-106 -91h-42l134 115h30z" />
    <glyph glyph-name="otilde" unicode="&#xf5;" horiz-adv-x="566" 
d="M114 60.5q-69 71.5 -69 166.5t70 164.5t168.5 69.5t168 -69.5t69.5 -165t-68 -166.5t-165 -71h-9q-96 0 -165 71.5zM428.5 371q-60.5 62 -144.5 62t-145.5 -62.5t-61.5 -146.5t61.5 -145.5t146 -61.5t144.5 61.5t60 146t-60.5 146.5zM363 547q-29 0 -78.5 27.5t-79.5 27
t-62 -53.5h-31q39 80 95 80h9q30 0 75 -26.5t72.5 -26.5t58.5 49h31q-47 -77 -90 -77z" />
    <glyph glyph-name="odieresis" unicode="&#xf6;" horiz-adv-x="566" 
d="M114 60.5q-69 71.5 -69 166.5t70 164.5t168.5 69.5t168 -69.5t69.5 -165t-68 -166.5t-165 -71h-9q-96 0 -165 71.5zM428.5 371q-60.5 62 -144.5 62t-145.5 -62.5t-61.5 -146.5t61.5 -145.5t146 -61.5t144.5 61.5t60 146t-60.5 146.5zM202 585q0 27 29 27t29 -27t-29 -27
t-29 27zM309 585q0 27 27.5 27t27.5 -27t-27.5 -27t-27.5 27z" />
    <glyph glyph-name="divide" unicode="&#xf7;" horiz-adv-x="461" 
d="M386 387h-311v31h311v-31zM199 286q0 31 34.5 31t34.5 -31t-34.5 -31t-34.5 31zM199 526q0 31 34.5 31t34.5 -31t-34.5 -31t-34.5 31z" />
    <glyph glyph-name="oslash" unicode="&#xf8;" horiz-adv-x="556" 
d="M432 404q84 -72 84 -172.5t-67.5 -171.5t-163.5 -71h-15q-68 0 -121 37l-19 -26h-37l33 44q-86 71 -86 174.5t70 173t168 69.5q71 0 130 -38l20 27h39zM278 433q-83 0 -144.5 -62.5t-61.5 -150.5t72 -152l246 331q-52 34 -112 34zM424 78.5q60 61.5 60 150t-70 151.5
l-246 -330q50 -33 110 -33q86 0 146 61.5z" />
    <glyph glyph-name="ugrave" unicode="&#xf9;" horiz-adv-x="524" 
d="M432 450h32v-450h-32v91q-51 -102 -174 -102q-84 0 -141 58t-57 141v262h32v-262q0 -69 48.5 -120t117.5 -51t121.5 51t52.5 120v262zM171 644h41l140 -115h-42z" />
    <glyph glyph-name="uacute" unicode="&#xfa;" horiz-adv-x="524" 
d="M432 450h32v-450h-32v91q-51 -102 -174 -102q-84 0 -141 58t-57 141v262h32v-262q0 -69 48.5 -120t117.5 -51t121.5 51t52.5 120v262zM311 644h41l-139 -115h-42z" />
    <glyph glyph-name="ucircumflex" unicode="&#xfb;" horiz-adv-x="524" 
d="M432 450h32v-450h-32v91q-51 -102 -174 -102q-84 0 -141 58t-57 141v262h32v-262q0 -69 48.5 -120t117.5 -51t121.5 51t52.5 120v262zM278 644l132 -115h-41l-107 91l-106 -91h-42l134 115h30z" />
    <glyph glyph-name="udieresis" unicode="&#xfc;" horiz-adv-x="524" 
d="M432 450h32v-450h-32v91q-51 -102 -174 -102q-84 0 -141 58t-57 141v262h32v-262q0 -69 48.5 -120t117.5 -51t121.5 51t52.5 120v262zM181 585q0 27 29 27t29 -27t-29 -27t-29 27zM288 585q0 27 27.5 27t27.5 -27t-27.5 -27t-27.5 27z" />
    <glyph glyph-name="yacute" unicode="&#xfd;" horiz-adv-x="524" 
d="M432 450h32v-436q0 -89 -62 -151t-152 -62q-108 0 -171 83l2 50q28 -48 73.5 -76.5t95.5 -28.5q74 0 128 53.5t54 128.5v76q-49 -98 -171 -98q-83 0 -142 58.5t-59 140.5v262h32v-262q0 -69 50.5 -120t119.5 -51t119.5 51t50.5 120v262zM311 644h41l-139 -115h-42z" />
    <glyph glyph-name="thorn" unicode="&#xfe;" horiz-adv-x="589" 
d="M75 -200v829h32v-284q33 53 88.5 84t115.5 31q99 0 168.5 -69.5t69.5 -166.5t-69.5 -166.5t-168.5 -69.5q-61 0 -116 31t-88 84v-303h-32zM457 370.5q-60 61.5 -144.5 61.5t-146 -61.5t-61.5 -146.5t61.5 -146.5t146 -61.5t144.5 61.5t60 146.5t-60 146.5z" />
    <glyph glyph-name="ydieresis" unicode="&#xff;" horiz-adv-x="524" 
d="M432 450h32v-436q0 -89 -62 -151t-152 -62q-108 0 -171 83l2 50q28 -48 73.5 -76.5t95.5 -28.5q74 0 128 53.5t54 128.5v76q-49 -98 -171 -98q-83 0 -142 58.5t-59 140.5v262h32v-262q0 -69 50.5 -120t119.5 -51t119.5 51t50.5 120v262zM181 585q0 27 29 27t29 -27
t-29 -27t-29 27zM288 585q0 27 27.5 27t27.5 -27t-27.5 -27t-27.5 27z" />
    <glyph glyph-name="Amacron" unicode="&#x100;" horiz-adv-x="789" 
d="M394 768l375 -768h-35l-142 286h-401l-140 -286h-31zM391 699l-187 -384h376z" />
    <glyph glyph-name="amacron" unicode="&#x101;" horiz-adv-x="569" 
d="M509 450v-450h-32v112q-28 -57 -84 -90t-120 -33q-98 0 -168 69.5t-70 166.5t70 166.5t168 69.5q64 0 122.5 -34t81.5 -90v113h32zM128.5 78.5q61.5 -61.5 146 -61.5t144.5 61.5t60 146t-60.5 146.5t-144.5 62t-145.5 -62.5t-61.5 -146.5t61.5 -145.5zM383 566h-197v28
h197v-28z" />
    <glyph glyph-name="Abreve" unicode="&#x102;" horiz-adv-x="789" 
d="M394 768l375 -768h-35l-142 286h-401l-140 -286h-31zM391 699l-187 -384h376zM329 880.5q29 -27.5 64.5 -27.5t64 27.5t32.5 63.5h29q-2 -47 -37.5 -81.5t-83.5 -34.5h-8q-48 0 -83 34t-37 82h28q2 -36 31 -63.5z" />
    <glyph glyph-name="abreve" unicode="&#x103;" horiz-adv-x="569" 
d="M509 450v-450h-32v112q-28 -57 -84 -90t-120 -33q-98 0 -168 69.5t-70 166.5t70 166.5t168 69.5q64 0 122.5 -34t81.5 -90v113h32zM128.5 78.5q61.5 -61.5 146 -61.5t144.5 61.5t60 146t-60.5 146.5t-144.5 62t-145.5 -62.5t-61.5 -146.5t61.5 -145.5zM219 580.5
q29 -27.5 64.5 -27.5t64 27.5t32.5 63.5h29q-2 -47 -37.5 -81.5t-83.5 -34.5h-8q-48 0 -83 34t-37 82h28q2 -36 31 -63.5z" />
    <glyph glyph-name="Aogonek" unicode="&#x104;" horiz-adv-x="789" 
d="M734 -175h35v-25h-40q-33 0 -54 20t-21 50v7l80 123l-142 286h-401l-140 -286h-31l374 768l375 -768l-80 -125q0 -22 11.5 -36t33.5 -14zM391 699l-187 -384h376z" />
    <glyph glyph-name="aogonek" unicode="&#x105;" horiz-adv-x="569" 
d="M509 450v-450h-1l-87 -125q0 -21 13.5 -35.5t36.5 -14.5h38v-25h-40q-33 0 -54 20t-21 50v7l86 123h-3v112q-28 -57 -84 -90t-120 -33q-98 0 -168 69.5t-70 166.5t70 166.5t168 69.5q64 0 122.5 -34t81.5 -90v113h32zM128.5 78.5q61.5 -61.5 146 -61.5t144.5 61.5t60 146
t-60.5 146.5t-144.5 62t-145.5 -62.5t-61.5 -146.5t61.5 -145.5z" />
    <glyph glyph-name="Cacute" unicode="&#x106;" horiz-adv-x="698" 
d="M440 -11h-11q-103 0 -192 54t-140.5 143.5t-51.5 190.5q0 159 115 273.5t275 114.5q107 0 203 -56v-37q-94 64 -203 64q-147 0 -252 -105.5t-105 -253t105 -253.5t252 -106q109 0 203 64v-37q-91 -56 -198 -56zM483 944h41l-139 -115h-42z" />
    <glyph glyph-name="cacute" unicode="&#x107;" horiz-adv-x="476" 
d="M278 -13h-9q-96 0 -165 71t-69 166.5t70 165t172 69.5t174 -77v-51q-31 46 -78.5 73t-99.5 27q-83 0 -144.5 -61.5t-61.5 -146.5t61.5 -146.5t144.5 -61.5q52 0 99.5 27t78.5 74v-52q-70 -77 -173 -77zM287 644h41l-139 -115h-42z" />
    <glyph glyph-name="Ccircumflex" unicode="&#x108;" horiz-adv-x="698" 
d="M440 -11h-11q-103 0 -192 54t-140.5 143.5t-51.5 190.5q0 159 115 273.5t275 114.5q107 0 203 -56v-37q-94 64 -203 64q-147 0 -252 -105.5t-105 -253t105 -253.5t252 -106q109 0 203 64v-37q-91 -56 -198 -56zM452 944l132 -115h-41l-107 91l-106 -91h-42l134 115h30z
" />
    <glyph glyph-name="ccircumflex" unicode="&#x109;" horiz-adv-x="476" 
d="M278 -13h-9q-96 0 -165 71t-69 166.5t70 165t172 69.5t174 -77v-51q-31 46 -78.5 73t-99.5 27q-83 0 -144.5 -61.5t-61.5 -146.5t61.5 -146.5t144.5 -61.5q52 0 99.5 27t78.5 74v-52q-70 -77 -173 -77zM293 644l132 -115h-41l-107 91l-106 -91h-42l134 115h30z" />
    <glyph glyph-name="Cdotaccent" unicode="&#x10a;" horiz-adv-x="698" 
d="M440 -11h-11q-103 0 -192 54t-140.5 143.5t-51.5 190.5q0 159 115 273.5t275 114.5q107 0 203 -56v-37q-94 64 -203 64q-147 0 -252 -105.5t-105 -253t105 -253.5t252 -106q109 0 203 64v-37q-91 -56 -198 -56zM410 886q0 27 29 27t29 -27t-29 -27t-29 27z" />
    <glyph glyph-name="cdotaccent" unicode="&#x10b;" horiz-adv-x="476" 
d="M278 -13h-9q-96 0 -165 71t-69 166.5t70 165t172 69.5t174 -77v-51q-31 46 -78.5 73t-99.5 27q-83 0 -144.5 -61.5t-61.5 -146.5t61.5 -146.5t144.5 -61.5q52 0 99.5 27t78.5 74v-52q-70 -77 -173 -77zM241 586q0 27 29 27t29 -27t-29 -27t-29 27z" />
    <glyph glyph-name="Ccaron" unicode="&#x10c;" horiz-adv-x="698" 
d="M440 -11h-11q-103 0 -192 54t-140.5 143.5t-51.5 190.5q0 159 115 273.5t275 114.5q107 0 203 -56v-37q-94 64 -203 64q-147 0 -252 -105.5t-105 -253t105 -253.5t252 -106q109 0 203 64v-37q-91 -56 -198 -56zM581 944l-132 -115h-30l-134 115h42l106 -91l107 91h41z
" />
    <glyph glyph-name="ccaron" unicode="&#x10d;" horiz-adv-x="476" 
d="M278 -13h-9q-96 0 -165 71t-69 166.5t70 165t172 69.5t174 -77v-51q-31 46 -78.5 73t-99.5 27q-83 0 -144.5 -61.5t-61.5 -146.5t61.5 -146.5t144.5 -61.5q52 0 99.5 27t78.5 74v-52q-70 -77 -173 -77zM425 644l-132 -115h-30l-134 115h42l106 -91l107 91h41z" />
    <glyph glyph-name="Dcaron" unicode="&#x10e;" horiz-adv-x="526" 
d="M75 750h32q168 0 271 -110.5t103 -265t-102.5 -264.5t-271.5 -110h-32v750zM115 720h-8v-689h8q146 0 239.5 101t93.5 242.5t-93.5 243.5t-239.5 102zM353 944l-132 -115h-30l-134 115h42l106 -91l107 91h41z" />
    <glyph glyph-name="dcaron" unicode="&#x10f;" horiz-adv-x="645" 
d="M509 750v-750h-32v109q-30 -55 -87 -87.5t-117 -32.5q-99 0 -168.5 69.5t-69.5 166.5t69.5 166.5t168.5 69.5q62 0 119.5 -33t84.5 -88v410h32zM127 78.5q60 -61.5 144.5 -61.5t146 61.5t61.5 145.5t-61.5 146.5t-145.5 62.5t-144.5 -62t-60.5 -146.5t60 -146zM590 633
v56q-31 0 -31 31t34.5 31t34.5 -31q0 -7 -3 -16l-31 -71h-4z" />
    <glyph glyph-name="Dcroat" unicode="&#x110;" horiz-adv-x="526" 
d="M75 750h32q168 0 271 -110.5t103 -265t-102.5 -264.5t-271.5 -110h-32v361h-60v29h60v360zM115 720h-8v-330h124v-29h-124v-330h8q146 0 239.5 101t93.5 242.5t-93.5 243.5t-239.5 102z" />
    <glyph glyph-name="dcroat" unicode="&#x111;" horiz-adv-x="595" 
d="M509 750v-155h67v-29h-67v-566h-32v109q-30 -55 -87 -87.5t-117 -32.5q-99 0 -168.5 69.5t-69.5 166.5t69.5 166.5t168.5 69.5q62 0 119.5 -33t84.5 -88v226h-117v29h117v155h32zM127 78.5q60 -61.5 144.5 -61.5t146 61.5t61.5 145.5t-61.5 146.5t-145.5 62.5t-144.5 -62
t-60.5 -146.5t60 -146z" />
    <glyph glyph-name="Emacron" unicode="&#x112;" horiz-adv-x="369" 
d="M75 750h269v-29h-236v-408h197v-29h-197v-255h236v-29h-269v750z" />
    <glyph glyph-name="emacron" unicode="&#x113;" horiz-adv-x="495" 
d="M285 -12h-9q-95 0 -165.5 71.5t-70.5 166.5t70 164.5t173 69.5t177 -82l-314 -310q65 -52 125 -52t107.5 27.5t78.5 73.5v-51q-71 -78 -172 -78zM133.5 370.5q-61.5 -61.5 -61.5 -141.5t53 -140l291 289q-62 54 -141.5 54t-141 -61.5zM346 566h-197v28h197v-28z" />
    <glyph glyph-name="Ebreve" unicode="&#x114;" horiz-adv-x="369" 
d="M75 750h269v-29h-236v-408h197v-29h-197v-255h236v-29h-269v750zM145 880.5q29 -27.5 64.5 -27.5t64 27.5t32.5 63.5h29q-2 -47 -37.5 -81.5t-83.5 -34.5h-8q-48 0 -83 34t-37 82h28q2 -36 31 -63.5z" />
    <glyph glyph-name="ebreve" unicode="&#x115;" horiz-adv-x="495" 
d="M285 -12h-9q-95 0 -165.5 71.5t-70.5 166.5t70 164.5t173 69.5t177 -82l-314 -310q65 -52 125 -52t107.5 27.5t78.5 73.5v-51q-71 -78 -172 -78zM133.5 370.5q-61.5 -61.5 -61.5 -141.5t53 -140l291 289q-62 54 -141.5 54t-141 -61.5zM182 580.5q29 -27.5 64.5 -27.5
t64 27.5t32.5 63.5h29q-2 -47 -37.5 -81.5t-83.5 -34.5h-8q-48 0 -83 34t-37 82h28q2 -36 31 -63.5z" />
    <glyph glyph-name="Edotaccent" unicode="&#x116;" horiz-adv-x="369" 
d="M75 750h269v-29h-236v-408h197v-29h-197v-255h236v-29h-269v750zM184 886q0 27 29 27t29 -27t-29 -27t-29 27z" />
    <glyph glyph-name="edotaccent" unicode="&#x117;" horiz-adv-x="495" 
d="M285 -12h-9q-95 0 -165.5 71.5t-70.5 166.5t70 164.5t173 69.5t177 -82l-314 -310q65 -52 125 -52t107.5 27.5t78.5 73.5v-51q-71 -78 -172 -78zM133.5 370.5q-61.5 -61.5 -61.5 -141.5t53 -140l291 289q-62 54 -141.5 54t-141 -61.5zM218 586q0 27 29 27t29 -27t-29 -27
t-29 27z" />
    <glyph glyph-name="Eogonek" unicode="&#x118;" horiz-adv-x="369" 
d="M75 750h269v-29h-236v-408h197v-29h-197v-255h235v-29l-87 -125q0 -21 13.5 -35.5t36.5 -14.5h38v-25h-40q-33 0 -54 20t-21 50v7l86 123h-240v750z" />
    <glyph glyph-name="eogonek" unicode="&#x119;" horiz-adv-x="495" 
d="M290 -12h-14q-95 0 -165.5 71.5t-70.5 166.5t70 164.5t173 69.5t177 -82l-314 -310q65 -52 125 -52t107.5 27.5t78.5 73.5v-51q-57 -64 -137 -75l-80 -116q0 -21 13.5 -35.5t36.5 -14.5h38v-25h-40q-33 0 -54 20t-21 50v7zM133.5 370.5q-61.5 -61.5 -61.5 -141.5t53 -140
l291 289q-62 54 -141.5 54t-141 -61.5z" />
    <glyph glyph-name="Ecaron" unicode="&#x11a;" horiz-adv-x="369" 
d="M75 750h269v-29h-236v-408h197v-29h-197v-255h236v-29h-269v750zM359 944l-132 -115h-30l-134 115h42l106 -91l107 91h41z" />
    <glyph glyph-name="ecaron" unicode="&#x11b;" horiz-adv-x="495" 
d="M285 -12h-9q-95 0 -165.5 71.5t-70.5 166.5t70 164.5t173 69.5t177 -82l-314 -310q65 -52 125 -52t107.5 27.5t78.5 73.5v-51q-71 -78 -172 -78zM133.5 370.5q-61.5 -61.5 -61.5 -141.5t53 -140l291 289q-62 54 -141.5 54t-141 -61.5zM395 644l-132 -115h-30l-134 115h42
l106 -91l107 91h41z" />
    <glyph glyph-name="Gcircumflex" unicode="&#x11c;" horiz-adv-x="693" 
d="M357 286v29h281v-271q-88 -55 -198 -55h-11q-103 0 -192 54t-140.5 143.5t-51.5 190.5q0 159 115 273.5t275 114.5q107 0 203 -56v-37q-94 64 -203 64q-147 0 -252 -105.5t-105 -253t105 -253.5t252 -106q82 0 170 42v226h-248zM450 944l132 -115h-41l-107 91l-106 -91
h-42l134 115h30z" />
    <glyph glyph-name="gcircumflex" unicode="&#x11d;" horiz-adv-x="570" 
d="M478 450h32v-408q0 -116 -64 -183t-168 -67q-57 0 -111 26t-84 68v46q26 -48 81.5 -80t113.5 -32q88 0 144 59.5t56 162.5v67q-27 -55 -85 -88t-120 -33q-98 0 -168 69.5t-70 166.5t70 166.5t168 69.5q65 0 121.5 -32.5t83.5 -89.5v112zM128.5 77.5q61.5 -61.5 146 -61.5
t144.5 61.5t60 146.5t-60 146.5t-144.5 61.5t-146 -61.5t-61.5 -146.5t61.5 -146.5zM301 644l132 -115h-41l-107 91l-106 -91h-42l134 115h30z" />
    <glyph glyph-name="Gbreve" unicode="&#x11e;" horiz-adv-x="693" 
d="M357 286v29h281v-271q-88 -55 -198 -55h-11q-103 0 -192 54t-140.5 143.5t-51.5 190.5q0 159 115 273.5t275 114.5q107 0 203 -56v-37q-94 64 -203 64q-147 0 -252 -105.5t-105 -253t105 -253.5t252 -106q82 0 170 42v226h-248zM372 880.5q29 -27.5 64.5 -27.5t64 27.5
t32.5 63.5h29q-2 -47 -37.5 -81.5t-83.5 -34.5h-8q-48 0 -83 34t-37 82h28q2 -36 31 -63.5z" />
    <glyph glyph-name="gbreve" unicode="&#x11f;" horiz-adv-x="570" 
d="M478 450h32v-408q0 -116 -64 -183t-168 -67q-57 0 -111 26t-84 68v46q26 -48 81.5 -80t113.5 -32q88 0 144 59.5t56 162.5v67q-27 -55 -85 -88t-120 -33q-98 0 -168 69.5t-70 166.5t70 166.5t168 69.5q65 0 121.5 -32.5t83.5 -89.5v112zM128.5 77.5q61.5 -61.5 146 -61.5
t144.5 61.5t60 146.5t-60 146.5t-144.5 61.5t-146 -61.5t-61.5 -146.5t61.5 -146.5zM219 580.5q29 -27.5 64.5 -27.5t64 27.5t32.5 63.5h29q-2 -47 -37.5 -81.5t-83.5 -34.5h-8q-48 0 -83 34t-37 82h28q2 -36 31 -63.5z" />
    <glyph glyph-name="Gdotaccent" unicode="&#x120;" horiz-adv-x="693" 
d="M357 286v29h281v-271q-88 -55 -198 -55h-11q-103 0 -192 54t-140.5 143.5t-51.5 190.5q0 159 115 273.5t275 114.5q107 0 203 -56v-37q-94 64 -203 64q-147 0 -252 -105.5t-105 -253t105 -253.5t252 -106q82 0 170 42v226h-248zM406 886q0 27 29 27t29 -27t-29 -27
t-29 27z" />
    <glyph glyph-name="gdotaccent" unicode="&#x121;" horiz-adv-x="570" 
d="M478 450h32v-408q0 -116 -64 -183t-168 -67q-57 0 -111 26t-84 68v46q26 -48 81.5 -80t113.5 -32q88 0 144 59.5t56 162.5v67q-27 -55 -85 -88t-120 -33q-98 0 -168 69.5t-70 166.5t70 166.5t168 69.5q65 0 121.5 -32.5t83.5 -89.5v112zM128.5 77.5q61.5 -61.5 146 -61.5
t144.5 61.5t60 146.5t-60 146.5t-144.5 61.5t-146 -61.5t-61.5 -146.5t61.5 -146.5zM256 586q0 27 29 27t29 -27t-29 -27t-29 27z" />
    <glyph glyph-name="uni0122" unicode="&#x122;" horiz-adv-x="693" 
d="M357 286v29h281v-271q-88 -55 -198 -55h-11q-103 0 -192 54t-140.5 143.5t-51.5 190.5q0 159 115 273.5t275 114.5q107 0 203 -56v-37q-94 64 -203 64q-147 0 -252 -105.5t-105 -253t105 -253.5t252 -106q82 0 170 42v226h-248zM429 -195v56q-31 0 -31 31t34.5 31
t34.5 -31q0 -7 -3 -16l-31 -71h-4z" />
    <glyph glyph-name="uni0123" unicode="&#x123;" horiz-adv-x="570" 
d="M273 576v-47h-36v47q0 47 26 80.5t69 46.5v-35q-59 -27 -59 -92zM478 450h32v-408q0 -116 -64 -183t-168 -67q-57 0 -111 26t-84 68v46q26 -48 81.5 -80t113.5 -32q88 0 144 59.5t56 162.5v67q-27 -55 -85 -88t-120 -33q-98 0 -168 69.5t-70 166.5t70 166.5t168 69.5
q65 0 121.5 -32.5t83.5 -89.5v112zM128.5 77.5q61.5 -61.5 146 -61.5t144.5 61.5t60 146.5t-60 146.5t-144.5 61.5t-146 -61.5t-61.5 -146.5t61.5 -146.5z" />
    <glyph glyph-name="Hcircumflex" unicode="&#x124;" horiz-adv-x="730" 
d="M622 750h33v-750h-33v286h-514v-286h-33v750h33v-435h514v435zM381 944l132 -115h-41l-107 91l-106 -91h-42l134 115h30z" />
    <glyph glyph-name="hcircumflex" unicode="&#x125;" horiz-adv-x="514" 
d="M92 0h-32v749h32v-386q50 98 173 98q84 0 141.5 -58t57.5 -141v-262h-32v262q0 70 -49 120.5t-118 50.5t-121 -51t-52 -120v-262zM292 644l132 -115h-41l-107 91l-106 -91h-42l134 115h30z" />
    <glyph glyph-name="Hbar" unicode="&#x126;" horiz-adv-x="730" 
d="M622 750h33v-192h56v-29h-56v-529h-33v286h-514v-286h-33v529h-55v29h55v192h33v-192h514v192zM108 315h514v214h-514v-214z" />
    <glyph glyph-name="hbar" unicode="&#x127;" horiz-adv-x="527" 
d="M102 0h-32v581h-55v29h55v139h32v-139h129v-29h-129v-218q50 98 173 98q84 0 141.5 -58t57.5 -141v-262h-32v262q0 70 -49 120.5t-118 50.5t-121 -51t-52 -120v-262z" />
    <glyph glyph-name="Itilde" unicode="&#x128;" horiz-adv-x="193" 
d="M80 750h33v-750h-33v750zM177 847q-29 0 -78.5 27.5t-79.5 27t-62 -53.5h-31q39 80 95 80h9q30 0 75 -26.5t72.5 -26.5t58.5 49h31q-47 -77 -90 -77z" />
    <glyph glyph-name="itilde" unicode="&#x129;" horiz-adv-x="178" 
d="M105 449v-449h-32v449h32zM170 547q-29 0 -78.5 27.5t-79.5 27t-62 -53.5h-31q39 80 95 80h9q30 0 75 -26.5t72.5 -26.5t58.5 49h31q-47 -77 -90 -77z" />
    <glyph glyph-name="Imacron" unicode="&#x12a;" horiz-adv-x="193" 
d="M80 750h33v-750h-33v750zM197 866h-197v28h197v-28z" />
    <glyph glyph-name="imacron" unicode="&#x12b;" horiz-adv-x="178" 
d="M105 449v-449h-32v449h32zM188 566h-197v28h197v-28z" />
    <glyph glyph-name="Ibreve" unicode="&#x12c;" horiz-adv-x="193" 
d="M80 750h33v-750h-33v750zM31 880.5q29 -27.5 64.5 -27.5t64 27.5t32.5 63.5h29q-2 -47 -37.5 -81.5t-83.5 -34.5h-8q-48 0 -83 34t-37 82h28q2 -36 31 -63.5z" />
    <glyph glyph-name="ibreve" unicode="&#x12d;" horiz-adv-x="178" 
d="M105 449v-449h-32v449h32zM24 580.5q29 -27.5 64.5 -27.5t64 27.5t32.5 63.5h29q-2 -47 -37.5 -81.5t-83.5 -34.5h-8q-48 0 -83 34t-37 82h28q2 -36 31 -63.5z" />
    <glyph glyph-name="Iogonek" unicode="&#x12e;" horiz-adv-x="193" 
d="M80 750h33v-750h-1l-87 -125q0 -21 13.5 -35.5t36.5 -14.5h38v-25h-40q-33 0 -54 20t-21 50v7l86 123h-4v750z" />
    <glyph glyph-name="iogonek" unicode="&#x12f;" horiz-adv-x="178" 
d="M69 -175h38v-25h-40q-33 0 -54 20t-21 50v7l86 123h-5v449h32v-449h1l-87 -125q0 -21 13.5 -35.5t36.5 -14.5zM60 586q0 27 29 27t29 -27t-29 -27t-29 27z" />
    <glyph glyph-name="Idotaccent" unicode="&#x130;" horiz-adv-x="193" 
d="M80 750h33v-750h-33v750zM67 886q0 27 29 27t29 -27t-29 -27t-29 27z" />
    <glyph glyph-name="dotlessi" unicode="&#x131;" horiz-adv-x="178" 
d="M105 449v-449h-32v449h32z" />
    <glyph glyph-name="Jcircumflex" unicode="&#x134;" horiz-adv-x="467" 
d="M174 721v29h218v-520q0 -109 -59.5 -177t-155.5 -68h-10q-80 0 -147 57v41q63 -69 151 -69t138 59.5t50 152.5v495h-185zM302 944l132 -115h-41l-107 91l-106 -91h-42l134 115h30z" />
    <glyph glyph-name="jcircumflex" unicode="&#x135;" horiz-adv-x="242" 
d="M-5 -198v28q59 0 100 40t41 101v479h32v-479q0 -74 -50.5 -121.5t-122.5 -47.5zM164 644l132 -115h-41l-107 91l-106 -91h-42l134 115h30z" />
    <glyph glyph-name="uni0136" unicode="&#x136;" horiz-adv-x="572" 
d="M75 750h32v-275l317 275h40l-343 -299l431 -451h-44l-400 417v-417h-33v750zM282 -195v56q-31 0 -31 31t34.5 31t34.5 -31q0 -7 -3 -16l-31 -71h-4z" />
    <glyph glyph-name="uni0137" unicode="&#x137;" horiz-adv-x="388" 
d="M60 748h32v-454l178 156h41l-206 -180l258 -270h-43l-228 237v-237h-32v748zM190 -195v56q-31 0 -31 31t34.5 31t34.5 -31q0 -7 -3 -16l-31 -71h-4z" />
    <glyph glyph-name="Lacute" unicode="&#x139;" horiz-adv-x="360" 
d="M108 750v-721h232v-29h-265v750h33zM159 944h41l-139 -115h-42z" />
    <glyph glyph-name="lacute" unicode="&#x13a;" horiz-adv-x="251" 
d="M231 19v-28q-71 0 -121 47.5t-50 121.5v590h32v-590q0 -61 40.5 -101t98.5 -40zM158 940h41l-139 -115h-42z" />
    <glyph glyph-name="uni013B" unicode="&#x13b;" horiz-adv-x="360" 
d="M108 750v-721h232v-29h-265v750h33zM176 -195v56q-31 0 -31 31t34.5 31t34.5 -31q0 -7 -3 -16l-31 -71h-4z" />
    <glyph glyph-name="uni013C" unicode="&#x13c;" horiz-adv-x="251" 
d="M231 19v-28q-71 0 -121 47.5t-50 121.5v590h32v-590q0 -61 40.5 -101t98.5 -40zM138 -195v56q-31 0 -31 31t34.5 31t34.5 -31q0 -7 -3 -16l-31 -71h-4z" />
    <glyph glyph-name="Lcaron" unicode="&#x13d;" horiz-adv-x="360" 
d="M108 750v-721h232v-29h-265v750h33zM252 631v56q-31 0 -31 31t34.5 31t34.5 -31q0 -7 -3 -16l-31 -71h-4z" />
    <glyph glyph-name="lcaron" unicode="&#x13e;" horiz-adv-x="265" 
d="M231 19v-28q-71 0 -121 47.5t-50 121.5v590h32v-590q0 -61 40.5 -101t98.5 -40zM212 632v56q-31 0 -31 31t34.5 31t34.5 -31q0 -7 -3 -16l-31 -71h-4z" />
    <glyph glyph-name="Ldot" unicode="&#x13f;" horiz-adv-x="360" 
d="M108 750v-721h232v-29h-265v750h33zM253 398q0 31 31 31t31 -31t-31 -31t-31 31z" />
    <glyph glyph-name="ldot" unicode="&#x140;" horiz-adv-x="289" 
d="M231 19v-28q-71 0 -121 47.5t-50 121.5v590h32v-590q0 -61 40.5 -101t98.5 -40zM182 292q0 31 31 31t31 -31t-31 -31t-31 31z" />
    <glyph glyph-name="Lslash" unicode="&#x141;" horiz-adv-x="360" 
d="M108 750v-429l120 120l20 -20l-140 -140v-252h232v-29h-265v248l-47 -47l-20 20l67 67v462h33z" />
    <glyph glyph-name="lslash" unicode="&#x142;" horiz-adv-x="282" 
d="M260 19v-28q-71 0 -121 47.5t-50 121.5v102l-61 -61l-20 20l81 81v448h32v-416l107 107l20 -20l-127 -127v-134q0 -61 40.5 -101t98.5 -40z" />
    <glyph glyph-name="Nacute" unicode="&#x143;" horiz-adv-x="731" 
d="M627 750h29v-761l-552 679v-668h-29v761l552 -678v667zM415 944h41l-139 -115h-42z" />
    <glyph glyph-name="nacute" unicode="&#x144;" horiz-adv-x="524" 
d="M92 0h-32v450h32v-91q51 102 174 102q84 0 141 -58t57 -141v-262h-32v262q0 69 -48.5 120t-117.5 51t-121.5 -51t-52.5 -120v-262zM311 644h41l-139 -115h-42z" />
    <glyph glyph-name="uni0145" unicode="&#x145;" horiz-adv-x="731" 
d="M627 750h29v-761l-552 679v-668h-29v761l552 -678v667zM362 -195v56q-31 0 -31 31t34.5 31t34.5 -31q0 -7 -3 -16l-31 -71h-4z" />
    <glyph glyph-name="uni0146" unicode="&#x146;" horiz-adv-x="524" 
d="M92 0h-32v450h32v-91q51 102 174 102q84 0 141 -58t57 -141v-262h-32v262q0 69 -48.5 120t-117.5 51t-121.5 -51t-52.5 -120v-262zM258 -195v56q-31 0 -31 31t34.5 31t34.5 -31q0 -7 -3 -16l-31 -71h-4z" />
    <glyph glyph-name="Ncaron" unicode="&#x147;" horiz-adv-x="731" 
d="M627 750h29v-761l-552 679v-668h-29v761l552 -678v667zM513 944l-132 -115h-30l-134 115h42l106 -91l107 91h41z" />
    <glyph glyph-name="ncaron" unicode="&#x148;" horiz-adv-x="524" 
d="M92 0h-32v450h32v-91q51 102 174 102q84 0 141 -58t57 -141v-262h-32v262q0 69 -48.5 120t-117.5 51t-121.5 -51t-52.5 -120v-262zM410 644l-132 -115h-30l-134 115h42l106 -91l107 91h41z" />
    <glyph glyph-name="napostrophe" unicode="&#x149;" horiz-adv-x="524" 
d="M92 0h-32v450h32v-91q51 102 174 102q84 0 141 -58t57 -141v-262h-32v262q0 69 -48.5 120t-117.5 51t-121.5 -51t-52.5 -120v-262zM90 529v56q-31 0 -31 31t34.5 31t34.5 -31q0 -7 -3 -16l-31 -71h-4z" />
    <glyph glyph-name="Omacron" unicode="&#x14c;" horiz-adv-x="870" 
d="M158.5 104q-113.5 117 -113.5 273.5t115 271t276 114.5t275 -114t114 -271.5t-113 -274t-270 -116.5h-15q-155 0 -268.5 117zM687.5 628.5q-104.5 105.5 -252 105.5t-252.5 -105.5t-105 -253t105 -253.5t252 -106t252 106t105 253.5t-104.5 253zM533 866h-197v28h197v-28
z" />
    <glyph glyph-name="omacron" unicode="&#x14d;" horiz-adv-x="546" 
d="M104 60.5q-69 71.5 -69 166.5t70 164.5t168.5 69.5t168 -69.5t69.5 -165t-68 -166.5t-165 -71h-9q-96 0 -165 71.5zM418.5 371q-60.5 62 -144.5 62t-145.5 -62.5t-61.5 -146.5t61.5 -145.5t146 -61.5t144.5 61.5t60 146t-60.5 146.5zM371 566h-197v28h197v-28z" />
    <glyph glyph-name="Obreve" unicode="&#x14e;" horiz-adv-x="870" 
d="M158.5 104q-113.5 117 -113.5 273.5t115 271t276 114.5t275 -114t114 -271.5t-113 -274t-270 -116.5h-15q-155 0 -268.5 117zM687.5 628.5q-104.5 105.5 -252 105.5t-252.5 -105.5t-105 -253t105 -253.5t252 -106t252 106t105 253.5t-104.5 253zM369 880.5
q29 -27.5 64.5 -27.5t64 27.5t32.5 63.5h29q-2 -47 -37.5 -81.5t-83.5 -34.5h-8q-48 0 -83 34t-37 82h28q2 -36 31 -63.5z" />
    <glyph glyph-name="obreve" unicode="&#x14f;" horiz-adv-x="546" 
d="M104 60.5q-69 71.5 -69 166.5t70 164.5t168.5 69.5t168 -69.5t69.5 -165t-68 -166.5t-165 -71h-9q-96 0 -165 71.5zM418.5 371q-60.5 62 -144.5 62t-145.5 -62.5t-61.5 -146.5t61.5 -145.5t146 -61.5t144.5 61.5t60 146t-60.5 146.5zM207 580.5q29 -27.5 64.5 -27.5
t64 27.5t32.5 63.5h29q-2 -47 -37.5 -81.5t-83.5 -34.5h-8q-48 0 -83 34t-37 82h28q2 -36 31 -63.5z" />
    <glyph glyph-name="Ohungarumlaut" unicode="&#x150;" horiz-adv-x="870" 
d="M158.5 104q-113.5 117 -113.5 273.5t115 271t276 114.5t275 -114t114 -271.5t-113 -274t-270 -116.5h-15q-155 0 -268.5 117zM687.5 628.5q-104.5 105.5 -252 105.5t-252.5 -105.5t-105 -253t105 -253.5t252 -106t252 106t105 253.5t-104.5 253zM423 944h41l-139 -115
h-42zM545 944h41l-139 -115h-42z" />
    <glyph glyph-name="ohungarumlaut" unicode="&#x151;" horiz-adv-x="546" 
d="M104 60.5q-69 71.5 -69 166.5t70 164.5t168.5 69.5t168 -69.5t69.5 -165t-68 -166.5t-165 -71h-9q-96 0 -165 71.5zM418.5 371q-60.5 62 -144.5 62t-145.5 -62.5t-61.5 -146.5t61.5 -145.5t146 -61.5t144.5 61.5t60 146t-60.5 146.5zM261 644h41l-139 -115h-42zM383 644
h41l-139 -115h-42z" />
    <glyph glyph-name="OE" unicode="&#x152;" horiz-adv-x="759" 
d="M724 721h-236v-408h197v-29h-197v-255h236v-29h-297q-156 0 -266.5 111.5t-110.5 267.5t112 263.5t273 107.5h289v-29zM435 29h20v692h-20q-148 0 -250 -98.5t-102 -245.5t102.5 -247.5t249.5 -100.5z" />
    <glyph glyph-name="oe" unicode="&#x153;" horiz-adv-x="820" 
d="M300 -11h-15q-93 0 -161.5 71.5t-68.5 166.5t70 164.5t162 69.5t161 -56q69 58 155 58q108 0 182 -82l-313 -311q64 -51 124 -51t107.5 27.5t78.5 73.5v-51q-71 -78 -172 -78h-15q-82 0 -146 56q-64 -58 -149 -58zM438.5 371q-60.5 62 -144.5 62t-145.5 -62.5
t-61.5 -146.5t61.5 -145.5t146 -61.5t144.5 61.5t60 146t-60.5 146.5zM741 381q-62 54 -137.5 54t-134.5 -52q62 -68 62 -158q0 -34 -9 -64z" />
    <glyph glyph-name="Racute" unicode="&#x154;" horiz-adv-x="407" 
d="M75 750h43q97 0 170.5 -71.5t73.5 -168t-75 -167.5t-161 -71h-7l258 -272h-43l-227 238v-238h-32v750zM107 301h18q81 0 143 62t62 147t-64 148t-146 63h-13v-420zM225 944h41l-139 -115h-42z" />
    <glyph glyph-name="racute" unicode="&#x155;" horiz-adv-x="348" 
d="M226 433q-53 0 -93.5 -40t-40.5 -93v-300h-32v450h32v-67q18 34 56 56t85 22t90 -32v-40q-44 44 -97 44zM251 644h41l-139 -115h-42z" />
    <glyph glyph-name="uni0156" unicode="&#x156;" horiz-adv-x="407" 
d="M75 750h43q97 0 170.5 -71.5t73.5 -168t-75 -167.5t-161 -71h-7l258 -272h-43l-227 238v-238h-32v750zM107 301h18q81 0 143 62t62 147t-64 148t-146 63h-13v-420zM200 -195v56q-31 0 -31 31t34.5 31t34.5 -31q0 -7 -3 -16l-31 -71h-4z" />
    <glyph glyph-name="uni0157" unicode="&#x157;" horiz-adv-x="348" 
d="M226 433q-53 0 -93.5 -40t-40.5 -93v-300h-32v450h32v-67q18 34 56 56t85 22t90 -32v-40q-44 44 -97 44zM90 -195v56q-31 0 -31 31t34.5 31t34.5 -31q0 -7 -3 -16l-31 -71h-4z" />
    <glyph glyph-name="Rcaron" unicode="&#x158;" horiz-adv-x="407" 
d="M75 750h43q97 0 170.5 -71.5t73.5 -168t-75 -167.5t-161 -71h-7l258 -272h-43l-227 238v-238h-32v750zM107 301h18q81 0 143 62t62 147t-64 148t-146 63h-13v-420zM335 944l-132 -115h-30l-134 115h42l106 -91l107 91h41z" />
    <glyph glyph-name="rcaron" unicode="&#x159;" horiz-adv-x="348" 
d="M226 433q-53 0 -93.5 -40t-40.5 -93v-300h-32v450h32v-67q18 34 56 56t85 22t90 -32v-40q-44 44 -97 44zM346 644l-132 -115h-30l-134 115h42l106 -91l107 91h41z" />
    <glyph glyph-name="Sacute" unicode="&#x15a;" horiz-adv-x="498" 
d="M314.5 710q-39.5 24 -88.5 24t-83.5 -30.5t-34.5 -83.5v-5q0 -63 70 -115q30 -22 67.5 -43.5t75 -46t68 -52t50 -67.5t19.5 -88v-10q0 -95 -64.5 -151t-159.5 -56q-125 0 -194 103v54q26 -57 76.5 -92.5t125.5 -35.5t130 48t55 128v6q0 50 -26 91.5t-65 68t-85 55.5
t-85 54t-65 63t-26 83v7q0 70 45 107t111 37q92 0 146 -68v-51q-23 42 -62.5 66zM298 944h41l-139 -115h-42z" />
    <glyph glyph-name="sacute" unicode="&#x15b;" horiz-adv-x="344" 
d="M158 434q-26 0 -46 -17t-20 -42t22.5 -46t54 -38.5t63.5 -37.5t54.5 -51t22.5 -71q0 -59 -44.5 -100.5t-107.5 -41.5q-40 0 -74.5 17.5t-50.5 46.5v48q38 -84 122 -84q52 0 87.5 32t35.5 71.5t-22.5 66.5t-54.5 46t-63.5 37.5t-54 45t-22.5 62t28.5 60t73.5 24.5t77 -35
v-41q-32 48 -81 48zM221 644h41l-139 -115h-42z" />
    <glyph glyph-name="Scircumflex" unicode="&#x15c;" horiz-adv-x="498" 
d="M314.5 710q-39.5 24 -88.5 24t-83.5 -30.5t-34.5 -83.5v-5q0 -63 70 -115q30 -22 67.5 -43.5t75 -46t68 -52t50 -67.5t19.5 -88v-10q0 -95 -64.5 -151t-159.5 -56q-125 0 -194 103v54q26 -57 76.5 -92.5t125.5 -35.5t130 48t55 128v6q0 50 -26 91.5t-65 68t-85 55.5
t-85 54t-65 63t-26 83v7q0 70 45 107t111 37q92 0 146 -68v-51q-23 42 -62.5 66zM265 944l132 -115h-41l-107 91l-106 -91h-42l134 115h30z" />
    <glyph glyph-name="scircumflex" unicode="&#x15d;" horiz-adv-x="344" 
d="M158 434q-26 0 -46 -17t-20 -42t22.5 -46t54 -38.5t63.5 -37.5t54.5 -51t22.5 -71q0 -59 -44.5 -100.5t-107.5 -41.5q-40 0 -74.5 17.5t-50.5 46.5v48q38 -84 122 -84q52 0 87.5 32t35.5 71.5t-22.5 66.5t-54.5 46t-63.5 37.5t-54 45t-22.5 62t28.5 60t73.5 24.5t77 -35
v-41q-32 48 -81 48zM188 644l132 -115h-41l-107 91l-106 -91h-42l134 115h30z" />
    <glyph glyph-name="Scedilla" unicode="&#x15e;" horiz-adv-x="498" 
d="M209 -75v62q-110 10 -169 102v54q26 -57 76.5 -92.5t125.5 -35.5t130 48t55 128v6q0 50 -26 91.5t-65 68t-85 55.5t-85 54t-65 63t-26 83v7q0 70 45 107t111 37q92 0 146 -68v-51q-23 42 -62.5 66t-88.5 24t-83.5 -30.5t-34.5 -83.5v-5q0 -63 70 -115q30 -22 67.5 -43.5
t75 -46t68 -52t50 -67.5t19.5 -88v-10q0 -95 -64.5 -151t-159.5 -56v-35h10q32 0 54.5 -22t22.5 -52v-4q0 -30 -22 -51.5t-55 -21.5h-35v25h35q23 0 38 14.5t15 35.5t-15 35.5t-38 14.5h-35z" />
    <glyph glyph-name="scedilla" unicode="&#x15f;" horiz-adv-x="344" 
d="M130 -75v66q-72 12 -98 62v48q38 -84 122 -84q52 0 87.5 32t35.5 71.5t-22.5 66.5t-54.5 46t-63.5 37.5t-54 45t-22.5 62t28.5 60t73.5 24.5t77 -35v-41q-32 48 -81 48q-26 0 -46 -17t-20 -42t22.5 -46t54 -38.5t63.5 -37.5t54.5 -51t22.5 -71q0 -59 -44.5 -100.5
t-107.5 -41.5h-2v-38h10q32 0 54.5 -22t22.5 -52v-4q0 -30 -22 -51.5t-55 -21.5h-35v25h35q23 0 38 14.5t15 35.5t-15 35.5t-38 14.5h-35z" />
    <glyph glyph-name="Scaron" unicode="&#x160;" horiz-adv-x="518" 
d="M324.5 710q-39.5 24 -88.5 24t-83.5 -30.5t-34.5 -83.5v-5q0 -63 70 -115q30 -22 67.5 -43.5t75 -46t68 -52t50 -67.5t19.5 -88v-10q0 -95 -64.5 -151t-159.5 -56q-125 0 -194 103v54q26 -57 76.5 -92.5t125.5 -35.5t130 48t55 128v6q0 50 -26 91.5t-65 68t-85 55.5
t-85 54t-65 63t-26 83v7q0 70 45 107t111 37q92 0 146 -68v-51q-23 42 -62.5 66zM407 944l-132 -115h-30l-134 115h42l106 -91l107 91h41z" />
    <glyph glyph-name="scaron" unicode="&#x161;" horiz-adv-x="364" 
d="M168 434q-26 0 -46 -17t-20 -42t22.5 -46t54 -38.5t63.5 -37.5t54.5 -51t22.5 -71q0 -59 -44.5 -100.5t-107.5 -41.5q-40 0 -74.5 17.5t-50.5 46.5v48q38 -84 122 -84q52 0 87.5 32t35.5 71.5t-22.5 66.5t-54.5 46t-63.5 37.5t-54 45t-22.5 62t28.5 60t73.5 24.5t77 -35
v-41q-32 48 -81 48zM330 644l-132 -115h-30l-134 115h42l106 -91l107 91h41z" />
    <glyph glyph-name="uni0162" unicode="&#x162;" horiz-adv-x="417" 
d="M397 750v-29h-171v-721h-33v721h-173v29h377zM205 -195v56q-31 0 -31 31t34.5 31t34.5 -31q0 -7 -3 -16l-31 -71h-4z" />
    <glyph glyph-name="uni0163" unicode="&#x163;" horiz-adv-x="241" 
d="M221 22v-28q-71 0 -121 47.5t-50 121.5v468h32v-182h138v-28h-138v-258q0 -61 40.5 -101t98.5 -40zM136 -195v56q-31 0 -31 31t34.5 31t34.5 -31q0 -7 -3 -16l-31 -71h-4z" />
    <glyph glyph-name="Tcaron" unicode="&#x164;" horiz-adv-x="417" 
d="M397 750v-29h-171v-721h-33v721h-173v29h377zM356 944l-132 -115h-30l-134 115h42l106 -91l107 91h41z" />
    <glyph glyph-name="tcaron" unicode="&#x165;" horiz-adv-x="274" 
d="M221 22v-28q-71 0 -121 47.5t-50 121.5v468h32v-182h138v-28h-138v-258q0 -61 40.5 -101t98.5 -40zM191 513v56q-31 0 -31 31t34.5 31t34.5 -31q0 -7 -3 -16l-31 -71h-4z" />
    <glyph glyph-name="Tbar" unicode="&#x166;" horiz-adv-x="417" 
d="M397 750v-29h-171v-417h118v-29h-118v-275h-33v275h-118v29h118v417h-173v29h377z" />
    <glyph glyph-name="tbar" unicode="&#x167;" horiz-adv-x="250" 
d="M232 22v-28q-71 0 -121 47.5t-50 121.5v361h-51v26h51v81h32v-81h126v-26h-126v-75h138v-28h-138v-258q0 -61 40.5 -101t98.5 -40z" />
    <glyph glyph-name="Utilde" unicode="&#x168;" horiz-adv-x="597" 
d="M304 -14h-10q-92 0 -155.5 64t-63.5 161v539h33v-538q0 -85 55 -141t136 -56t135.5 55.5t54.5 141.5v538h33v-537q0 -98 -63.5 -162.5t-154.5 -64.5zM379 847q-29 0 -78.5 27.5t-79.5 27t-62 -53.5h-31q39 80 95 80h9q30 0 75 -26.5t72.5 -26.5t58.5 49h31
q-47 -77 -90 -77z" />
    <glyph glyph-name="utilde" unicode="&#x169;" horiz-adv-x="504" 
d="M422 450h32v-450h-32v91q-51 -102 -174 -102q-84 0 -141 58t-57 141v262h32v-262q0 -69 48.5 -120t117.5 -51t121.5 51t52.5 120v262zM332 547q-29 0 -78.5 27.5t-79.5 27t-62 -53.5h-31q39 80 95 80h9q30 0 75 -26.5t72.5 -26.5t58.5 49h31q-47 -77 -90 -77z" />
    <glyph glyph-name="Umacron" unicode="&#x16a;" horiz-adv-x="597" 
d="M304 -14h-10q-92 0 -155.5 64t-63.5 161v539h33v-538q0 -85 55 -141t136 -56t135.5 55.5t54.5 141.5v538h33v-537q0 -98 -63.5 -162.5t-154.5 -64.5zM397 866h-197v28h197v-28z" />
    <glyph glyph-name="umacron" unicode="&#x16b;" horiz-adv-x="504" 
d="M422 450h32v-450h-32v91q-51 -102 -174 -102q-84 0 -141 58t-57 141v262h32v-262q0 -69 48.5 -120t117.5 -51t121.5 51t52.5 120v262zM350 566h-197v28h197v-28z" />
    <glyph glyph-name="Ubreve" unicode="&#x16c;" horiz-adv-x="597" 
d="M304 -14h-10q-92 0 -155.5 64t-63.5 161v539h33v-538q0 -85 55 -141t136 -56t135.5 55.5t54.5 141.5v538h33v-537q0 -98 -63.5 -162.5t-154.5 -64.5zM233 880.5q29 -27.5 64.5 -27.5t64 27.5t32.5 63.5h29q-2 -47 -37.5 -81.5t-83.5 -34.5h-8q-48 0 -83 34t-37 82h28
q2 -36 31 -63.5z" />
    <glyph glyph-name="ubreve" unicode="&#x16d;" horiz-adv-x="504" 
d="M422 450h32v-450h-32v91q-51 -102 -174 -102q-84 0 -141 58t-57 141v262h32v-262q0 -69 48.5 -120t117.5 -51t121.5 51t52.5 120v262zM186 580.5q29 -27.5 64.5 -27.5t64 27.5t32.5 63.5h29q-2 -47 -37.5 -81.5t-83.5 -34.5h-8q-48 0 -83 34t-37 82h28q2 -36 31 -63.5z
" />
    <glyph glyph-name="Uring" unicode="&#x16e;" horiz-adv-x="597" 
d="M304 -14h-10q-92 0 -155.5 64t-63.5 161v539h33v-538q0 -85 55 -141t136 -56t135.5 55.5t54.5 141.5v538h33v-537q0 -98 -63.5 -162.5t-154.5 -64.5zM300 812h-4q-30 0 -51.5 22.5t-21.5 53t22 52.5t53.5 22t53.5 -22t22 -52.5t-22 -53t-52 -22.5zM333.5 923
q-14.5 15 -35 15t-35.5 -15.5t-15 -35.5t15 -35.5t35.5 -15.5t35 15t14.5 36t-14.5 36z" />
    <glyph glyph-name="uring" unicode="&#x16f;" horiz-adv-x="504" 
d="M422 450h32v-450h-32v91q-51 -102 -174 -102q-84 0 -141 58t-57 141v262h32v-262q0 -69 48.5 -120t117.5 -51t121.5 51t52.5 120v262zM253 512h-4q-30 0 -51.5 22.5t-21.5 53t22 52.5t53.5 22t53.5 -22t22 -52.5t-22 -53t-52 -22.5zM286.5 623q-14.5 15 -35 15
t-35.5 -15.5t-15 -35.5t15 -35.5t35.5 -15.5t35 15t14.5 36t-14.5 36z" />
    <glyph glyph-name="Uhungarumlaut" unicode="&#x170;" horiz-adv-x="597" 
d="M304 -14h-10q-92 0 -155.5 64t-63.5 161v539h33v-538q0 -85 55 -141t136 -56t135.5 55.5t54.5 141.5v538h33v-537q0 -98 -63.5 -162.5t-154.5 -64.5zM287 944h41l-139 -115h-42zM409 944h41l-139 -115h-42z" />
    <glyph glyph-name="uhungarumlaut" unicode="&#x171;" horiz-adv-x="504" 
d="M422 450h32v-450h-32v91q-51 -102 -174 -102q-84 0 -141 58t-57 141v262h32v-262q0 -69 48.5 -120t117.5 -51t121.5 51t52.5 120v262zM240 644h41l-139 -115h-42zM362 644h41l-139 -115h-42z" />
    <glyph glyph-name="Uogonek" unicode="&#x172;" horiz-adv-x="597" 
d="M522 750v-537q0 -91 -56 -154.5t-139 -71.5l-78 -112q0 -21 13.5 -35.5t36.5 -14.5h38v-25h-40q-33 0 -54 20t-21 50v7l76 109h-4q-92 0 -155.5 64t-63.5 161v539h33v-538q0 -85 55 -141t136 -56t135.5 55.5t54.5 141.5v538h33z" />
    <glyph glyph-name="uogonek" unicode="&#x173;" horiz-adv-x="504" 
d="M422 450h32v-450h-1l-87 -125q0 -21 13.5 -35.5t36.5 -14.5h38v-25h-40q-33 0 -54 20t-21 50v7l86 123h-3v91q-51 -102 -174 -102q-84 0 -141 58t-57 141v262h32v-262q0 -69 48.5 -120t117.5 -51t121.5 51t52.5 120v262z" />
    <glyph glyph-name="Wcircumflex" unicode="&#x174;" horiz-adv-x="1023" 
d="M349 -13l-329 763h37l297 -687l139 325l-155 362h36l139 -329l143 329h28l-156 -361l142 -329l303 690h27l-333 -763l-159 366zM527 944l132 -115h-41l-107 91l-106 -91h-42l134 115h30z" />
    <glyph glyph-name="wcircumflex" unicode="&#x175;" horiz-adv-x="684" 
d="M25 450h33l185 -393l87 183l-97 208h32l81 -177l83 179h30l-98 -210l86 -185l183 394h29l-213 -460l-102 219l-103 -219zM358 644l132 -115h-41l-107 91l-106 -91h-42l134 115h30z" />
    <glyph glyph-name="Ycircumflex" unicode="&#x176;" horiz-adv-x="524" 
d="M281 0h-33v300l-228 450h36l211 -415l207 415h30l-223 -450v-300zM278 944l132 -115h-41l-107 91l-106 -91h-42l134 115h30z" />
    <glyph glyph-name="ycircumflex" unicode="&#x177;" horiz-adv-x="504" 
d="M422 450h32v-436q0 -89 -62 -151t-152 -62q-108 0 -171 83l2 50q28 -48 73.5 -76.5t95.5 -28.5q74 0 128 53.5t54 128.5v76q-49 -98 -171 -98q-83 0 -142 58.5t-59 140.5v262h32v-262q0 -69 50.5 -120t119.5 -51t119.5 51t50.5 120v262zM268 644l132 -115h-41l-107 91
l-106 -91h-42l134 115h30z" />
    <glyph glyph-name="Ydieresis" unicode="&#x178;" horiz-adv-x="544" 
d="M291 0h-33v300l-228 450h36l211 -415l207 415h30l-223 -450v-300zM191 885q0 27 29 27t29 -27t-29 -27t-29 27zM298 885q0 27 27.5 27t27.5 -27t-27.5 -27t-27.5 27z" />
    <glyph glyph-name="Zacute" unicode="&#x179;" horiz-adv-x="427" 
d="M402 29v-29h-377l330 721h-330v29h380l-331 -721h328zM263 944h41l-139 -115h-42z" />
    <glyph glyph-name="zacute" unicode="&#x17a;" horiz-adv-x="363" 
d="M335 28v-28h-310l256 422h-229v28h286l-257 -422h254zM231 644h41l-139 -115h-42z" />
    <glyph glyph-name="Zdotaccent" unicode="&#x17b;" horiz-adv-x="427" 
d="M402 29v-29h-377l330 721h-330v29h380l-331 -721h328zM184 886q0 27 29 27t29 -27t-29 -27t-29 27z" />
    <glyph glyph-name="zdotaccent" unicode="&#x17c;" horiz-adv-x="363" 
d="M335 28v-28h-310l256 422h-229v28h286l-257 -422h254zM152 586q0 27 29 27t29 -27t-29 -27t-29 27z" />
    <glyph glyph-name="Zcaron" unicode="&#x17d;" horiz-adv-x="447" 
d="M412 29v-29h-377l330 721h-330v29h380l-331 -721h328zM371 944l-132 -115h-30l-134 115h42l106 -91l107 91h41z" />
    <glyph glyph-name="zcaron" unicode="&#x17e;" horiz-adv-x="383" 
d="M345 28v-28h-310l256 422h-229v28h286l-257 -422h254zM339 644l-132 -115h-30l-134 115h42l106 -91l107 91h41z" />
    <glyph glyph-name="florin" unicode="&#x192;" horiz-adv-x="362" 
d="M25 -198v28q59 0 99.5 40t40.5 101v451h-99v28h99v130q0 74 50 121.5t122 47.5v-28q-59 0 -99.5 -40t-40.5 -101v-130h108v-28h-107v-451q0 -74 -50.5 -121.5t-122.5 -47.5z" />
    <glyph glyph-name="AEacute" unicode="&#x1fc;" horiz-adv-x="691" 
d="M666 750v-29h-236v-405h197v-29h-197v-258h236v-29h-269v286h-201l-140 -286h-31l372 750h269zM397 315v377l-188 -377h188zM598 944h41l-139 -115h-42z" />
    <glyph glyph-name="aeacute" unicode="&#x1fd;" horiz-adv-x="932" 
d="M722 -11h-15q-62 0 -115 34t-84 89v-112h-26v105q-32 -54 -87 -85t-117 -31q-98 0 -168 69.5t-70 166.5t70 166.5t168 69.5q62 0 117 -31t87 -85v105h26v-111q31 55 86 88.5t121 33.5q108 0 182 -82l-314 -310q65 -52 125 -52t107.5 27.5t78.5 73.5v-51q-71 -78 -172 -78
zM133.5 78.5q61.5 -61.5 146 -61.5t144.5 61.5t60 146t-60.5 146.5t-144.5 62t-145.5 -62.5t-61.5 -146.5t61.5 -145.5zM569.5 371.5q-61.5 -61.5 -61.5 -141t54 -140.5l291 289q-62 54 -142 54t-141.5 -61.5zM515 644h41l-139 -115h-42z" />
    <glyph glyph-name="Oslashacute" unicode="&#x1fe;" horiz-adv-x="870" 
d="M825 375q0 -155 -113 -271.5t-270 -116.5h-15q-116 0 -212 68l-41 -55h-37l54 73q-68 56 -107 135t-39 167q0 159 115 273.5t275 114.5q119 0 219 -68l40 53h39l-54 -72q68 -55 107 -133.5t39 -167.5zM435 734q-147 0 -252 -105.5t-105 -253.5q0 -82 35 -154.5t97 -123.5
l426 574q-92 63 -201 63zM792 375q0 167 -131 277l-428 -573q93 -63 202 -63q147 0 252 106t105 253zM484 944h41l-139 -115h-42z" />
    <glyph glyph-name="oslashacute" unicode="&#x1ff;" horiz-adv-x="546" 
d="M432 404q84 -72 84 -172.5t-67.5 -171.5t-163.5 -71h-15q-68 0 -121 37l-19 -26h-37l33 44q-86 71 -86 174.5t70 173t168 69.5q71 0 130 -38l20 27h39zM278 433q-83 0 -144.5 -62.5t-61.5 -150.5t72 -152l246 331q-52 34 -112 34zM424 78.5q60 61.5 60 150t-70 151.5
l-246 -330q50 -33 110 -33q86 0 146 61.5zM322 644h41l-139 -115h-42z" />
    <glyph glyph-name="uni0218" unicode="&#x218;" horiz-adv-x="498" 
d="M314.5 710q-39.5 24 -88.5 24t-83.5 -30.5t-34.5 -83.5v-5q0 -63 70 -115q30 -22 67.5 -43.5t75 -46t68 -52t50 -67.5t19.5 -88v-10q0 -95 -64.5 -151t-159.5 -56q-125 0 -194 103v54q26 -57 76.5 -92.5t125.5 -35.5t130 48t55 128v6q0 50 -26 91.5t-65 68t-85 55.5
t-85 54t-65 63t-26 83v7q0 70 45 107t111 37q92 0 146 -68v-51q-23 42 -62.5 66zM232 -195v56q-31 0 -31 31t34.5 31t34.5 -31q0 -7 -3 -16l-31 -71h-4z" />
    <glyph glyph-name="uni0219" unicode="&#x219;" horiz-adv-x="344" 
d="M158 434q-26 0 -46 -17t-20 -42t22.5 -46t54 -38.5t63.5 -37.5t54.5 -51t22.5 -71q0 -59 -44.5 -100.5t-107.5 -41.5q-40 0 -74.5 17.5t-50.5 46.5v48q38 -84 122 -84q52 0 87.5 32t35.5 71.5t-22.5 66.5t-54.5 46t-63.5 37.5t-54 45t-22.5 62t28.5 60t73.5 24.5t77 -35
v-41q-32 48 -81 48zM168 -195v56q-31 0 -31 31t34.5 31t34.5 -31q0 -7 -3 -16l-31 -71h-4z" />
    <glyph glyph-name="circumflex" unicode="&#x2c6;" horiz-adv-x="330" 
d="M182 644l132 -115h-41l-107 91l-106 -91h-42l134 115h30z" />
    <glyph glyph-name="caron" unicode="&#x2c7;" horiz-adv-x="330" 
d="M314 644l-132 -115h-30l-134 115h42l106 -91l107 91h41z" />
    <glyph glyph-name="breve" unicode="&#x2d8;" horiz-adv-x="279" 
d="M74 580.5q29 -27.5 64.5 -27.5t64 27.5t32.5 63.5h29q-2 -47 -37.5 -81.5t-83.5 -34.5h-8q-48 0 -83 34t-37 82h28q2 -36 31 -63.5z" />
    <glyph glyph-name="dotaccent" unicode="&#x2d9;" horiz-adv-x="88" 
d="M15 586q0 27 29 27t29 -27t-29 -27t-29 27z" />
    <glyph glyph-name="ring" unicode="&#x2da;" horiz-adv-x="181" 
d="M92 512h-4q-30 0 -51.5 22.5t-21.5 53t22 52.5t53.5 22t53.5 -22t22 -52.5t-22 -53t-52 -22.5zM125.5 623q-14.5 15 -35 15t-35.5 -15.5t-15 -35.5t15 -35.5t35.5 -15.5t35 15t14.5 36t-14.5 36z" />
    <glyph glyph-name="ogonek" unicode="&#x2db;" horiz-adv-x="145" 
d="M92 -175h38v-25h-40q-33 0 -54 20t-21 50v7l86 123h28l-87 -125q0 -21 13.5 -35.5t36.5 -14.5z" />
    <glyph glyph-name="tilde" unicode="&#x2dc;" horiz-adv-x="371" 
d="M266 547q-29 0 -78.5 27.5t-79.5 27t-62 -53.5h-31q39 80 95 80h9q30 0 75 -26.5t72.5 -26.5t58.5 49h31q-47 -77 -90 -77z" />
    <glyph glyph-name="hungarumlaut" unicode="&#x2dd;" horiz-adv-x="330" 
d="M155 644h41l-139 -115h-42zM277 644h41l-139 -115h-42z" />
    <glyph glyph-name="uni0401" unicode="&#x401;" horiz-adv-x="379" 
d="M344 721h-236v-408h197v-29h-197v-255h236v-29h-269v750h269v-29zM127 886q0 27 29 27t29 -27t-29 -27t-29 27zM234 886q0 27 27.5 27t27.5 -27t-27.5 -27t-27.5 27z" />
    <glyph glyph-name="uni0402" unicode="&#x402;" horiz-adv-x="663" 
d="M431 -198v26q59 0 99.5 40.5t40.5 102.5v291q0 70 -50.5 121.5t-119 51.5t-119.5 -49.5t-51 -116.5v-269h-33v721h-173v29h377v-29h-171v-350q53 92 169 92q85 0 144.5 -58.5t59.5 -142.5v-291q0 -75 -50.5 -122t-122.5 -47z" />
    <glyph glyph-name="uni0403" unicode="&#x403;" horiz-adv-x="377" 
d="M342 721h-234v-721h-33v750h267v-29zM267 950h41l-139 -139h-42z" />
    <glyph glyph-name="uni0404" unicode="&#x404;" horiz-adv-x="678" 
d="M440 763q108 0 203 -57v-36q-94 64 -203 64q-147 0 -252 -105.5t-105 -253.5q0 -28 5 -60h374v-29h-368q32 -114 129.5 -192t211.5 -78t208 64v-37q-91 -56 -196 -56h-15q-155 0 -268.5 117t-113.5 273.5t115 271t275 114.5z" />
    <glyph glyph-name="uni0405" unicode="&#x405;" horiz-adv-x="539" 
d="M340.5 709q-39.5 24 -88.5 24t-91.5 -35.5t-42.5 -92.5q0 -69 74 -116q32 -21 71.5 -41t79.5 -43t72.5 -49.5t53 -67t20.5 -90.5q0 -101 -68.5 -156.5t-169.5 -55.5q-128 0 -201 103v54q27 -58 81 -93t131 -35t135.5 48.5t58.5 132.5q0 52 -27.5 93t-68.5 65.5t-89.5 51
t-89.5 49.5t-68.5 61.5t-27.5 87.5q0 74 53 116t120 42q92 0 147 -68v-51q-25 42 -64.5 66z" />
    <glyph glyph-name="uni0406" unicode="&#x406;" horiz-adv-x="213" 
d="M123 0h-33v750h33v-750z" />
    <glyph glyph-name="uni0407" unicode="&#x407;" horiz-adv-x="189" 
d="M110 750v-750h-33v750h33zM15 831q0 26 26 26t26 -26t-26 -26t-26 26zM122 831q0 26 26 26t26 -26t-26 -26t-26 26z" />
    <glyph glyph-name="uni0408" unicode="&#x408;" horiz-adv-x="472" 
d="M179 721v29h218v-520q0 -109 -59.5 -177t-155.5 -68h-10q-80 0 -147 57v41q63 -69 151 -69t138 59.5t50 152.5v495h-185z" />
    <glyph glyph-name="uni0409" unicode="&#x409;" horiz-adv-x="798" 
d="M490 0v721h-241v-480q0 -105 -60 -173t-157 -68h-7v29q81 0 136 61.5t55 150.5v509h306v-292h9q82 0 154 -68.5t72 -160.5t-69.5 -160.5t-161.5 -68.5h-36zM522 30h5q79 0 139.5 59.5t60.5 139.5t-60 139.5t-137 59.5h-8v-398z" />
    <glyph glyph-name="uni040A" unicode="&#x40a;" horiz-adv-x="715" 
d="M477 750v-292h9q82 0 154 -68.5t72 -160.5t-69.5 -160.5t-161.5 -68.5h-36v427h-337v-427h-33v750h33v-292h337v292h32zM477 30h5q79 0 139.5 59.5t60.5 139.5t-60 139.5t-137 59.5h-8v-398z" />
    <glyph glyph-name="uni040B" unicode="&#x40b;" horiz-adv-x="663" 
d="M231 0h-33v721h-170v29h374v-29h-171v-350q53 92 169 92q84 0 143.5 -58.5t59.5 -142.5v-262h-32v262q0 70 -50.5 121.5t-119 51.5t-119.5 -49.5t-51 -116.5v-269z" />
    <glyph glyph-name="uni040C" unicode="&#x40c;" horiz-adv-x="579" 
d="M325 951h39l-139 -139h-40zM75 750h32v-275l317 275h40l-343 -299l431 -451h-44l-400 417v-417h-33v750z" />
    <glyph glyph-name="uni040E" unicode="&#x40e;" horiz-adv-x="639" 
d="M269 862.5q29 -27.5 64.5 -27.5t64 27.5t32.5 63.5h29q-2 -47 -37.5 -81.5t-83.5 -34.5h-8q-48 0 -83 34t-37 82h28q2 -36 31 -63.5zM613 750l-356 -750h-31l86 181l-280 569h36l262 -534l252 534h31z" />
    <glyph glyph-name="uni040F" unicode="&#x40f;" horiz-adv-x="621" 
d="M296 0h-221v750h33v-721h405v721h33v-750h-219v-97h-31v97z" />
    <glyph glyph-name="uni0410" unicode="&#x410;" horiz-adv-x="799" 
d="M399 768l375 -768h-35l-142 286h-401l-140 -286h-31zM396 699l-187 -384h376z" />
    <glyph glyph-name="uni0411" unicode="&#x411;" horiz-adv-x="393" 
d="M75 0v750h240v-29h-207v-244h9q95 0 168 -71t73 -168t-75 -167.5t-175 -70.5h-33zM108 449v-421h8q82 0 145.5 62.5t63.5 148t-61 148t-148 62.5h-8z" />
    <glyph glyph-name="uni0412" unicode="&#x412;" horiz-adv-x="392" 
d="M75 750h32q65 0 109 -40.5t44 -103.5q0 -38 -24.5 -77.5t-57.5 -51.5q77 -19 128 -82t51 -158.5t-73 -166t-177 -70.5h-32v750zM107 459v-431h8q86 0 148.5 64t62.5 152t-62 151.5t-149 63.5h-8zM107 722v-236h8q45 0 79.5 36.5t34.5 84t-34 81.5t-80 34h-8z" />
    <glyph glyph-name="uni0413" unicode="&#x413;" horiz-adv-x="367" 
d="M342 721h-234v-721h-33v750h267v-29z" />
    <glyph glyph-name="uni0414" unicode="&#x414;" horiz-adv-x="895" 
d="M35 -97v126h55l361 738l361 -738h48v-126h-31v97h-765v-97h-29zM448 698l-327 -669h657z" />
    <glyph glyph-name="uni0415" unicode="&#x415;" horiz-adv-x="369" 
d="M344 721h-236v-408h197v-29h-197v-255h236v-29h-269v750h269v-29z" />
    <glyph glyph-name="uni0416" unicode="&#x416;" horiz-adv-x="918" 
d="M443 750h32v-271l249 271h37l-274 -298l406 -452h-41l-377 417v-417h-32v417l-376 -417h-42l407 452l-274 298h36l249 -271v271z" />
    <glyph glyph-name="uni0417" unicode="&#x417;" horiz-adv-x="535" 
d="M389 613q0 -84 -80 -130q81 -18 133.5 -90.5t52.5 -157.5q0 -102 -75 -175t-181 -73q-64 0 -118.5 28.5t-85.5 79.5v56q27 -60 81.5 -97.5t123.5 -37.5q91 0 156.5 65t65.5 156.5t-64.5 158.5t-157.5 67h-38v28h32q51 0 86.5 36t35.5 86t-35.5 85.5t-81.5 35.5t-80 -23
t-46 -60v52q45 60 115 60t115.5 -44t45.5 -106z" />
    <glyph glyph-name="uni0418" unicode="&#x418;" horiz-adv-x="737" 
d="M662 750v-750h-33v703l-523 -703h-31v750h33v-701l521 701h33z" />
    <glyph glyph-name="uni0419" unicode="&#x419;" horiz-adv-x="737" 
d="M316 869.5q28 -26.5 64.5 -26.5t64.5 27t32 63h29q-2 -47 -37.5 -81.5t-83.5 -34.5h-8q-48 0 -83 34t-37 82h28q3 -37 31 -63.5zM662 750v-750h-33v703l-523 -703h-31v750h33v-701l521 701h33z" />
    <glyph glyph-name="uni041A" unicode="&#x41a;" horiz-adv-x="577" 
d="M75 750h32v-275l317 275h40l-343 -299l431 -451h-44l-400 417v-417h-33v750z" />
    <glyph glyph-name="uni041B" unicode="&#x41b;" horiz-adv-x="796" 
d="M398 767l373 -767h-36l-340 695l-338 -695h-32z" />
    <glyph glyph-name="uni041C" unicode="&#x41c;" horiz-adv-x="919" 
d="M844 750v-750h-33v711l-354 -725l-352 725v-711h-30v750h48l337 -692l338 692h46z" />
    <glyph glyph-name="uni041D" unicode="&#x41d;" horiz-adv-x="730" 
d="M622 750h33v-750h-33v286h-514v-286h-33v750h33v-435h514v435z" />
    <glyph glyph-name="uni041E" unicode="&#x41e;" horiz-adv-x="880" 
d="M163.5 105q-113.5 117 -113.5 273.5t115 271t276 114.5t275 -114t114 -271.5t-113 -274t-270 -116.5h-15q-155 0 -268.5 117zM692.5 629.5q-104.5 105.5 -252 105.5t-252.5 -105.5t-105 -253t105 -253.5t252 -106t252 106t105 253.5t-104.5 253z" />
    <glyph glyph-name="uni041F" unicode="&#x41f;" horiz-adv-x="622" 
d="M75 750h472v-750h-33v721h-406v-721h-33v750z" />
    <glyph glyph-name="uni0420" unicode="&#x420;" horiz-adv-x="408" 
d="M75 750h33q104 0 177 -71.5t73 -168.5t-75.5 -167t-166.5 -70h-8v-273h-33v750zM108 301h8q84 0 146.5 62t62.5 147t-63.5 148t-145.5 63h-8v-420z" />
    <glyph glyph-name="uni0421" unicode="&#x421;" horiz-adv-x="678" 
d="M445 -11h-11q-103 0 -192 54t-140.5 143.5t-51.5 190.5q0 159 115 273.5t275 114.5q107 0 203 -56v-37q-94 64 -203 64q-147 0 -252 -105.5t-105 -253t105 -253.5t252 -106q109 0 203 64v-37q-91 -56 -198 -56z" />
    <glyph glyph-name="uni0422" unicode="&#x422;" horiz-adv-x="427" 
d="M402 750v-29h-171v-721h-33v721h-173v29h377z" />
    <glyph glyph-name="uni0423" unicode="&#x423;" horiz-adv-x="631" 
d="M606 750l-356 -750h-31l86 181l-280 569h36l262 -534l252 534h31z" />
    <glyph glyph-name="uni0424" unicode="&#x424;" horiz-adv-x="847" 
d="M407 -25v60h-7q-143 0 -246.5 102.5t-103.5 240.5t103.5 238.5t245.5 100.5h8v58h33v-58h7q143 0 246.5 -102.5t103.5 -239.5t-104 -238.5t-246 -101.5h-7v-60h-33zM400 62h7v628h-8q-129 0 -222.5 -93t-93.5 -220.5t93.5 -221t223.5 -93.5zM448 690h-8v-628h7
q129 0 223.5 93t94.5 220t-95.5 221t-221.5 94z" />
    <glyph glyph-name="uni0425" unicode="&#x425;" horiz-adv-x="493" 
d="M424 750l-161 -330l205 -420h-37l-187 385l-188 -385h-31l203 419l-165 331h38l146 -297l145 297h32z" />
    <glyph glyph-name="uni0426" unicode="&#x426;" horiz-adv-x="648" 
d="M594 0h-519v750h33v-721h405v721h33v-721h77v-126h-29v97z" />
    <glyph glyph-name="uni0427" unicode="&#x427;" horiz-adv-x="582" 
d="M60 505v245h33v-238q0 -82 55.5 -140.5t135 -58.5t135 58.5t55.5 140.5v238h33v-750h-33v406q-25 -53 -75 -87.5t-110 -34.5h-10q-89 0 -154 66.5t-65 154.5z" />
    <glyph glyph-name="uni0428" unicode="&#x428;" horiz-adv-x="714" 
d="M639 0h-564v750h33v-721h233v721h32v-721h233v721h33v-750z" />
    <glyph glyph-name="uni0429" unicode="&#x429;" horiz-adv-x="742" 
d="M688 0h-613v750h33v-721h233v721h32v-721h233v721h34v-721h77v-126h-29v97z" />
    <glyph glyph-name="uni042A" unicode="&#x42a;" horiz-adv-x="468" 
d="M25 721v29h158v-293h9q82 0 154 -68t72 -160t-70.5 -160.5t-164.5 -68.5h-33v721h-125zM191 428h-8v-399h8q75 0 134.5 60t59.5 140t-59 139.5t-135 59.5z" />
    <glyph glyph-name="uni042B" unicode="&#x42b;" horiz-adv-x="542" 
d="M434 0v750h33v-750h-33zM75 750h33v-293h9q82 0 154 -68t72 -160t-70.5 -160.5t-164.5 -68.5h-33v750zM116 428h-8v-399h8q75 0 134.5 60t59.5 140t-59 139.5t-135 59.5z" />
    <glyph glyph-name="uni042C" unicode="&#x42c;" horiz-adv-x="393" 
d="M75 750h33v-293h9q82 0 154 -68t72 -160t-70.5 -160.5t-164.5 -68.5h-33v750zM116 428h-8v-399h8q75 0 134.5 60t59.5 140t-59 139.5t-135 59.5z" />
    <glyph glyph-name="uni042D" unicode="&#x42d;" horiz-adv-x="678" 
d="M238 763q160 0 275 -114.5t115 -271t-113.5 -273.5t-268.5 -117h-15q-105 0 -196 56v37q94 -64 208 -64t211.5 78t129.5 192h-368v29h374q5 32 5 60q0 148 -105 253.5t-252 105.5q-109 0 -203 -64v36q95 57 203 57z" />
    <glyph glyph-name="uni042E" unicode="&#x42e;" horiz-adv-x="1117" 
d="M75 0v750h33v-435h184q-5 32 -5 60q0 159 115 273.5t275 114.5t275 -114t115 -271t-114 -274t-269 -117h-15q-129 0 -232.5 87t-139.5 212h-189v-286h-33zM928.5 628.5q-105.5 105.5 -252.5 105.5t-251.5 -105.5t-104.5 -253t105 -253.5t251.5 -106t252 106t105.5 253.5
t-105.5 253z" />
    <glyph glyph-name="uni042F" unicode="&#x42f;" horiz-adv-x="406" 
d="M288 750h43v-750h-32v238l-227 -238h-37l258 272h-13q-86 0 -161 71t-75 167.5t73.5 168t170.5 71.5zM281 301h18v420h-13q-82 0 -146 -63t-64 -148t62 -147t143 -62z" />
    <glyph glyph-name="uni0430" unicode="&#x430;" horiz-adv-x="589" 
d="M514 450v-450h-32v112q-28 -57 -84 -90t-120 -33q-98 0 -168 69.5t-70 166.5t70 166.5t168 69.5q64 0 122.5 -34t81.5 -90v113h32zM133.5 78.5q61.5 -61.5 146 -61.5t144.5 61.5t60 146t-60.5 146.5t-144.5 62t-145.5 -62.5t-61.5 -146.5t61.5 -145.5z" />
    <glyph glyph-name="uni0431" unicode="&#x431;" horiz-adv-x="571" 
d="M148.5 76.5q61.5 -61.5 146 -61.5t144.5 61.5t60 146t-60.5 146.5t-144.5 62t-145.5 -62.5t-61.5 -146.5t61.5 -145.5zM293 459q99 0 168.5 -69.5t69.5 -165t-67.5 -166.5t-163.5 -71h-15q-93 0 -161.5 73t-68.5 168v76q0 111 46 181q19 29 54.5 54.5t63.5 38.5t75 32
l182 72v-29l-182 -73q-208 -83 -208 -240v-9q29 60 86 94t121 34z" />
    <glyph glyph-name="uni0432" unicode="&#x432;" horiz-adv-x="347" 
d="M75 450h84q39 0 64.5 -26.5t25.5 -70.5t-37 -68q40 -12 67.5 -52t27.5 -93t-43 -96.5t-105 -43.5h-84v450zM161 268h-54v-241h54q48 0 82.5 35.5t34.5 85.5t-34.5 85t-82.5 35zM160 423h-53v-128h55q24 0 42 18.5t18 44t-19 45.5t-43 20z" />
    <glyph glyph-name="uni0433" unicode="&#x433;" horiz-adv-x="299" 
d="M274 421h-167v-421h-32v449h199v-28z" />
    <glyph glyph-name="uni0434" unicode="&#x434;" horiz-adv-x="536" 
d="M25 -57v83h35l209 437l209 -436h33v-84h-28v57h-432v-57h-26zM266 395l-176 -368h353z" />
    <glyph glyph-name="uni0435" unicode="&#x435;" horiz-adv-x="490" 
d="M283 -12h-11q-95 0 -163.5 71t-68.5 166.5t70 165t173 69.5t177 -82l-314 -310q65 -52 125 -52t107.5 27.5t78.5 73.5v-51q-71 -78 -174 -78zM133.5 370.5q-61.5 -61.5 -61.5 -141.5t53 -140l291 289q-62 54 -141.5 54t-141 -61.5z" />
    <glyph glyph-name="uni0436" unicode="&#x436;" horiz-adv-x="616" 
d="M292 450h32v-145l144 145h36l-176 -180l263 -270h-43l-224 231v-231h-32v231l-224 -231h-43l263 270l-176 180h36l144 -145v145z" />
    <glyph glyph-name="uni0437" unicode="&#x437;" horiz-adv-x="358" 
d="M225.5 430.5q28.5 -27.5 28.5 -60t-13.5 -53.5t-31.5 -30q45 -12 77 -54.5t32 -98.5t-46.5 -101.5t-110.5 -45.5q-85 0 -131 68v60q15 -45 49 -73t83 -28t86.5 38t37.5 89.5t-37.5 90t-87.5 38.5h-24v27h20q27 0 46 20t19 47t-19 47t-46 20q-56 0 -78 -71v63q32 35 75 35
t71.5 -27.5z" />
    <glyph glyph-name="uni0438" unicode="&#x438;" horiz-adv-x="533" 
d="M458 449v-449h-31v399l-324 -399h-28v449h31v-399l323 399h29z" />
    <glyph glyph-name="uni0439" unicode="&#x439;" horiz-adv-x="533" 
d="M458 449v-449h-31v399l-324 -399h-28v449h31v-399l323 399h29zM212 631.5q28 -26.5 64.5 -26.5t64.5 27t32 63h29q-2 -47 -37.5 -81.5t-83.5 -34.5h-8q-48 0 -83 34t-37 82h28q3 -37 31 -63.5z" />
    <glyph glyph-name="uni043A" unicode="&#x43a;" horiz-adv-x="403" 
d="M75 450h32v-156l178 156h41l-206 -180l258 -270h-43l-228 237v-237h-32v450z" />
    <glyph glyph-name="uni043B" unicode="&#x43b;" horiz-adv-x="493" 
d="M54 0h-29l221 463l222 -463h-35l-190 395z" />
    <glyph glyph-name="uni043C" unicode="&#x43c;" horiz-adv-x="613" 
d="M75 0v450h36l197 -398l200 398h30v-450h-32v391l-203 -403l-200 407v-395h-28z" />
    <glyph glyph-name="uni043D" unicode="&#x43d;" horiz-adv-x="519" 
d="M412 450h32v-450h-32v169h-305v-169h-32v450h32v-253h305v253z" />
    <glyph glyph-name="uni043E" unicode="&#x43e;" horiz-adv-x="556" 
d="M110 391.5q70 69.5 168.5 69.5t168 -69.5t69.5 -165t-68 -166.5t-165 -71h-10q-94 0 -163.5 71.5t-69.5 166.5t70 164.5zM423.5 371q-60.5 62 -144.5 62t-145.5 -62.5t-61.5 -146.5t61.5 -145.5t146 -61.5t144.5 61.5t60 146t-60.5 146.5z" />
    <glyph glyph-name="uni043F" unicode="&#x43f;" horiz-adv-x="512" 
d="M75 450h362v-450h-32v422h-298v-422h-32v450z" />
    <glyph glyph-name="uni0440" unicode="&#x440;" horiz-adv-x="589" 
d="M75 -200v650h32v-110q27 55 84.5 88t119.5 33q99 0 168.5 -69.5t69.5 -166.5t-69.5 -166.5t-168.5 -69.5q-60 0 -117 32.5t-87 87.5v-309h-32zM166.5 78.5q61.5 -61.5 146 -61.5t144.5 61.5t60 146t-60.5 146.5t-144.5 62t-145.5 -62.5t-61.5 -146.5t61.5 -145.5z" />
    <glyph glyph-name="uni0441" unicode="&#x441;" horiz-adv-x="486" 
d="M283 -13h-9q-96 0 -165 71t-69 166.5t70 165t172 69.5t174 -77v-51q-31 46 -78.5 73t-99.5 27q-83 0 -144.5 -61.5t-61.5 -146.5t61.5 -146.5t144.5 -61.5q52 0 99.5 27t78.5 74v-52q-70 -77 -173 -77z" />
    <glyph glyph-name="uni0442" unicode="&#x442;" horiz-adv-x="426" 
d="M401 449v-28h-172v-421h-32v421h-172v28h376z" />
    <glyph glyph-name="uni0443" unicode="&#x443;" horiz-adv-x="508" 
d="M483 450l-309 -650h-29l95 201l-215 449h34l198 -413l197 413h29z" />
    <glyph glyph-name="uni0444" unicode="&#x444;" horiz-adv-x="601" 
d="M289 629h32v-168h5q98 0 166.5 -68.5t68.5 -164t-67.5 -165t-165.5 -69.5h-7v-192h-32v192h-8q-99 0 -170 70t-71 164.5t71.5 163.5t169.5 69h8v168zM289 433h-8q-84 0 -147.5 -61.5t-63.5 -144.5t63.5 -144t147.5 -61h8v411zM321 433v-411h6q84 0 143.5 60.5t59.5 144.5
t-60 145t-144 61h-5z" />
    <glyph glyph-name="uni0445" unicode="&#x445;" horiz-adv-x="442" 
d="M236 273l181 -273h-37l-162 245l-161 -245h-32l177 270l-119 180h37l100 -152l100 152h32z" />
    <glyph glyph-name="uni0446" unicode="&#x446;" horiz-adv-x="533" 
d="M405 450h32v-421h71v-126h-28v97h-405v450h32v-422h298v422z" />
    <glyph glyph-name="uni0447" unicode="&#x447;" horiz-adv-x="436" 
d="M40 310v140h32v-137q0 -56 37.5 -96t91.5 -40t91 40t37 96v137h32v-450h-31v222q-18 -32 -51.5 -51.5t-73.5 -19.5h-6q-65 0 -112 47.5t-47 111.5z" />
    <glyph glyph-name="uni0448" unicode="&#x448;" horiz-adv-x="614" 
d="M539 0h-464v450h32v-422h184v422h32v-422h184v422h32v-450z" />
    <glyph glyph-name="uni0449" unicode="&#x449;" horiz-adv-x="638" 
d="M75 0v450h32v-422h185v422h32v-422h185v422h32v-421h72v-126h-31v97h-507z" />
    <glyph glyph-name="uni044A" unicode="&#x44a;" horiz-adv-x="382" 
d="M25 450h122v-155h49q60 0 103 -44t43 -104t-44 -103.5t-105 -43.5h-78v422h-90v28zM147 268v-241h47q47 0 82 35.5t35 84t-35.5 85t-81.5 36.5h-47z" />
    <glyph glyph-name="uni044B" unicode="&#x44b;" horiz-adv-x="498" 
d="M391 450h31v-450h-31v450zM75 450h32v-155h49q60 0 103 -44t43 -104t-44 -103.5t-105 -43.5h-78v450zM107 268v-241h47q47 0 82 35.5t35 84t-35.5 85t-81.5 36.5h-47z" />
    <glyph glyph-name="uni044C" unicode="&#x44c;" horiz-adv-x="342" 
d="M75 450h32v-155h49q60 0 103 -44t43 -104t-44 -103.5t-105 -43.5h-78v450zM107 268v-241h47q47 0 82 35.5t35 84t-35.5 85t-81.5 36.5h-47z" />
    <glyph glyph-name="uni044D" unicode="&#x44d;" horiz-adv-x="486" 
d="M157 170v27h255q2 14 2 26q0 85 -61.5 146.5t-144.5 61.5q-52 0 -99.5 -27t-78.5 -74v52q70 77 174 77h9q95 0 164 -71.5t69 -166.5t-70 -164.5t-172 -69.5t-174 77v52q31 -47 78.5 -74t106.5 -27t115.5 45.5t77.5 109.5h-251z" />
    <glyph glyph-name="uni044E" unicode="&#x44e;" horiz-adv-x="736" 
d="M75 0v450h32v-253h115q-2 6 -2 28q0 97 69.5 166.5t168 69.5t168.5 -69.5t70 -164.5t-69 -166.5t-165 -71.5h-8q-78 0 -141.5 53t-86.5 127h-119v-169h-32zM458 433q-84 0 -145 -62t-61 -146.5t61 -146t145 -61.5t145 61.5t61 146t-61 146.5t-145 62z" />
    <glyph glyph-name="uni044F" unicode="&#x44f;" horiz-adv-x="328" 
d="M76 210q-31 40 -31 96.5t43.5 100t104.5 43.5h60v-450h-32v155h-33l-114 -155h-34l116 158q-49 12 -80 52zM221 182v241h-30q-46 0 -81.5 -36.5t-35.5 -84t35.5 -84t81.5 -36.5h30z" />
    <glyph glyph-name="uni0451" unicode="&#x451;" horiz-adv-x="500" 
d="M192 604q0 27 29 27t29 -27t-29 -27t-29 27zM299 604q0 27 27.5 27t27.5 -27t-27.5 -27t-27.5 27zM283 -12h-11q-95 0 -163.5 71t-68.5 166.5t70 165t173 69.5t177 -82l-314 -310q65 -52 125 -52t107.5 27.5t78.5 73.5v-51q-71 -78 -174 -78zM133.5 370.5
q-61.5 -61.5 -61.5 -141.5t53 -140l291 289q-62 54 -141.5 54t-141 -61.5z" />
    <glyph glyph-name="uni0452" unicode="&#x452;" horiz-adv-x="640" 
d="M25 579v29h136v140h33v-140h169v-29h-169v-210q53 92 169 92q85 0 143.5 -58t58.5 -141v-291q0 -74 -50 -121.5t-121 -47.5v28q59 0 98.5 39.5t39.5 101.5v291q0 69 -50 120t-118.5 51t-119 -49.5t-50.5 -114.5v-269h-33v579h-136z" />
    <glyph glyph-name="uni0453" unicode="&#x453;" horiz-adv-x="299" 
d="M273 422h-167v-422h-31v449h198v-27zM233 703h41l-139 -139h-42z" />
    <glyph glyph-name="uni0454" unicode="&#x454;" horiz-adv-x="491" 
d="M329 197v-27h-251q21 -64 77.5 -109.5t115.5 -45.5t106.5 27t78.5 74v-52q-72 -77 -174 -77t-172 69.5t-70 164.5t68.5 166.5t161.5 71.5h15q101 0 171 -77v-52q-31 47 -78.5 74t-99.5 27q-83 0 -144.5 -61.5t-61.5 -146.5q0 -12 2 -26h255z" />
    <glyph glyph-name="uni0455" unicode="&#x455;" horiz-adv-x="357" 
d="M166 434q-26 0 -46 -17t-20 -42t22.5 -46t54 -38.5t63.5 -37.5t54.5 -51t22.5 -71q0 -59 -44.5 -100.5t-107.5 -41.5q-40 0 -74.5 17.5t-50.5 46.5v48q38 -84 122 -84q52 0 87.5 32t35.5 71.5t-22.5 66.5t-54.5 46t-63.5 37.5t-54 45t-22.5 62t28.5 60t73.5 24.5t77 -35
v-41q-32 48 -81 48z" />
    <glyph glyph-name="uni0456" unicode="&#x456;" horiz-adv-x="218" 
d="M125 449v-449h-32v449h32zM80 586q0 27 29 27t29 -27t-29 -27t-29 27z" />
    <glyph glyph-name="uni0457" unicode="&#x457;" horiz-adv-x="202" 
d="M20 586q0 27 29 27t29 -27t-29 -27t-29 27zM127 586q0 27 27.5 27t27.5 -27t-27.5 -27t-27.5 27zM118 449v-449h-32v449h32z" />
    <glyph glyph-name="uni0458" unicode="&#x458;" horiz-adv-x="272" 
d="M10 -198v28q59 0 99.5 40t40.5 101v479h33v-479q0 -74 -50.5 -121.5t-122.5 -47.5zM139 586q0 27 29 27t29 -27t-29 -27t-29 27z" />
    <glyph glyph-name="uni0459" unicode="&#x459;" horiz-adv-x="628" 
d="M30 0v28q59 0 100 40t41 101v281h247v-155h25q60 0 102.5 -44t42.5 -104t-43.5 -103.5t-104.5 -43.5h-54v422h-186v-253q0 -74 -49.5 -121.5t-120.5 -47.5zM418 268v-241h24q47 0 82 35.5t35 84t-35.5 85t-81.5 36.5h-24z" />
    <glyph glyph-name="uni045A" unicode="&#x45a;" horiz-adv-x="601" 
d="M361 450h31v-155h24q61 0 103 -43.5t42 -104t-43 -104t-105 -43.5h-52v268h-254v-268h-32v450h32v-154h254v154zM392 268v-241h23q48 0 82.5 35.5t34.5 84t-34.5 85t-82.5 36.5h-23z" />
    <glyph glyph-name="uni045B" unicode="&#x45b;" horiz-adv-x="640" 
d="M25 579v29h136v140h33v-140h169v-29h-169v-210q53 92 169 92q85 0 143.5 -58t58.5 -141v-262h-33v262q0 69 -50 120t-118.5 51t-119 -49.5t-50.5 -114.5v-269h-33v579h-136z" />
    <glyph glyph-name="uni045C" unicode="&#x45c;" horiz-adv-x="403" 
d="M253 703h41l-139 -139h-42zM75 450h32v-156l178 156h41l-206 -180l258 -270h-43l-228 237v-237h-32v450z" />
    <glyph glyph-name="uni045E" unicode="&#x45e;" horiz-adv-x="508" 
d="M205 624.5q29 -27.5 64.5 -27.5t64 27.5t32.5 63.5h29q-2 -47 -37.5 -81.5t-83.5 -34.5h-8q-48 0 -83 34t-37 82h28q2 -36 31 -63.5zM483 450l-309 -650h-29l95 201l-215 449h34l198 -413l197 413h29z" />
    <glyph glyph-name="uni045F" unicode="&#x45f;" horiz-adv-x="510" 
d="M403 450h32v-450h-165v-97h-29v97h-166v450h32v-422h296v422z" />
    <glyph glyph-name="uni0490" unicode="&#x490;" horiz-adv-x="367" 
d="M108 721v-721h-33v750h234v99h33v-128h-234z" />
    <glyph glyph-name="uni0491" unicode="&#x491;" horiz-adv-x="299" 
d="M107 422v-422h-32v450h168v103h31v-131h-167z" />
    <glyph glyph-name="Wgrave" unicode="&#x1e80;" horiz-adv-x="1023" 
d="M349 -13l-329 763h37l297 -687l139 325l-155 362h36l139 -329l143 329h28l-156 -361l142 -329l303 690h27l-333 -763l-159 366zM421 944h41l140 -115h-42z" />
    <glyph glyph-name="wgrave" unicode="&#x1e81;" horiz-adv-x="684" 
d="M25 450h33l185 -393l87 183l-97 208h32l81 -177l83 179h30l-98 -210l86 -185l183 394h29l-213 -460l-102 219l-103 -219zM251 644h41l140 -115h-42z" />
    <glyph glyph-name="Wacute" unicode="&#x1e82;" horiz-adv-x="1023" 
d="M349 -13l-329 763h37l297 -687l139 325l-155 362h36l139 -329l143 329h28l-156 -361l142 -329l303 690h27l-333 -763l-159 366zM561 944h41l-139 -115h-42z" />
    <glyph glyph-name="wacute" unicode="&#x1e83;" horiz-adv-x="684" 
d="M25 450h33l185 -393l87 183l-97 208h32l81 -177l83 179h30l-98 -210l86 -185l183 394h29l-213 -460l-102 219l-103 -219zM391 644h41l-139 -115h-42z" />
    <glyph glyph-name="Wdieresis" unicode="&#x1e84;" horiz-adv-x="1023" 
d="M349 -13l-329 763h37l297 -687l139 325l-155 362h36l139 -329l143 329h28l-156 -361l142 -329l303 690h27l-333 -763l-159 366zM430 885q0 27 29 27t29 -27t-29 -27t-29 27zM537 885q0 27 27.5 27t27.5 -27t-27.5 -27t-27.5 27z" />
    <glyph glyph-name="wdieresis" unicode="&#x1e85;" horiz-adv-x="684" 
d="M25 450h33l185 -393l87 183l-97 208h32l81 -177l83 179h30l-98 -210l86 -185l183 394h29l-213 -460l-102 219l-103 -219zM261 585q0 27 29 27t29 -27t-29 -27t-29 27zM368 585q0 27 27.5 27t27.5 -27t-27.5 -27t-27.5 27z" />
    <glyph glyph-name="Ygrave" unicode="&#x1ef2;" horiz-adv-x="524" 
d="M281 0h-33v300l-228 450h36l211 -415l207 415h30l-223 -450v-300zM171 944h41l140 -115h-42z" />
    <glyph glyph-name="ygrave" unicode="&#x1ef3;" horiz-adv-x="504" 
d="M422 450h32v-436q0 -89 -62 -151t-152 -62q-108 0 -171 83l2 50q28 -48 73.5 -76.5t95.5 -28.5q74 0 128 53.5t54 128.5v76q-49 -98 -171 -98q-83 0 -142 58.5t-59 140.5v262h32v-262q0 -69 50.5 -120t119.5 -51t119.5 51t50.5 120v262zM161 644h41l140 -115h-42z" />
    <glyph glyph-name="endash" unicode="&#x2013;" horiz-adv-x="408" 
d="M358 282h-308v31h308v-31z" />
    <glyph glyph-name="emdash" unicode="&#x2014;" horiz-adv-x="494" 
d="M479 282h-464v31h464v-31z" />
    <glyph glyph-name="quoteleft" unicode="&#x2018;" horiz-adv-x="220" 
d="M136 685v-118h-36v118q0 47 26 80.5t69 46.5v-35q-59 -27 -59 -92z" />
    <glyph glyph-name="quoteright" unicode="&#x2019;" horiz-adv-x="220" 
d="M84 695v115h36v-115q0 -47 -26 -80.5t-69 -46.5v35q59 27 59 92z" />
    <glyph glyph-name="quotesinglbase" unicode="&#x201a;" horiz-adv-x="205" 
d="M79 -72v104h36v-104q0 -47 -26 -80.5t-69 -46.5v35q59 27 59 92z" />
    <glyph glyph-name="quotedblleft" unicode="&#x201c;" horiz-adv-x="344" 
d="M136 685v-118h-36v118q0 47 26 80.5t69 46.5v-35q-59 -27 -59 -92zM260 685v-118h-36v118q0 47 26 80.5t69 46.5v-35q-59 -27 -59 -92z" />
    <glyph glyph-name="quotedblright" unicode="&#x201d;" horiz-adv-x="344" 
d="M208 694v116h36v-116q0 -47 -26 -80.5t-69 -46.5v35q59 27 59 92zM84 694v116h36v-116q0 -47 -26 -80.5t-69 -46.5v35q59 27 59 92z" />
    <glyph glyph-name="quotedblbase" unicode="&#x201e;" horiz-adv-x="329" 
d="M203 -73v103h36v-103q0 -47 -26 -80.5t-69 -46.5v35q59 27 59 92zM79 -73v103h36v-103q0 -47 -26 -80.5t-69 -46.5v35q59 27 59 92z" />
    <glyph glyph-name="dagger" unicode="&#x2020;" horiz-adv-x="461" 
d="M386 284h-139v-284h-33v284h-139v31h139v433h33v-433h139v-31z" />
    <glyph glyph-name="daggerdbl" unicode="&#x2021;" horiz-adv-x="461" 
d="M386 284h-139v-284h-33v284h-139v29h139v153h-139v31h139v251h33v-251h139v-31h-139v-153h139v-29z" />
    <glyph glyph-name="bullet" unicode="&#x2022;" horiz-adv-x="315" 
d="M110 286q0 47 47.5 47t47.5 -47q0 -22 -13 -34.5t-35 -12.5q-47 0 -47 47z" />
    <glyph glyph-name="ellipsis" unicode="&#x2026;" horiz-adv-x="506" 
d="M75 24q0 31 34.5 31t34.5 -31t-34.5 -31t-34.5 31zM222 24q0 31 34.5 31t34.5 -31t-34.5 -31t-34.5 31zM362 24q0 31 34.5 31t34.5 -31t-34.5 -31t-34.5 31z" />
    <glyph glyph-name="perthousand" unicode="&#x2030;" horiz-adv-x="1155" 
d="M546 -11h-10q-64 0 -111 49t-47 115t48 114t116.5 48t116.5 -48t48 -114t-47.5 -115t-113.5 -49zM635.5 245.5q-39.5 40.5 -92.5 40.5t-93 -40.5t-40 -94t40 -93.5t93 -40t92.5 40t39.5 93.5t-39.5 94zM223 435h-10q-65 0 -111.5 49t-46.5 115t47.5 114t116 48t116 -48
t47.5 -114t-47 -115t-112 -49zM219 732q-54 0 -94 -40.5t-40 -94t40 -93.5t94 -40t92.5 39.5t38.5 93.5t-38.5 94.5t-92.5 40.5zM944 -11h-10q-64 0 -111 49t-47 115t48 114t116.5 48t116.5 -48t48 -114t-47.5 -115t-113.5 -49zM1033.5 245.5q-39.5 40.5 -92.5 40.5
t-93 -40.5t-40 -94t40 -93.5t93 -40t92.5 40t39.5 93.5t-39.5 94zM633 748h39l-559 -748h-37z" />
    <glyph glyph-name="guilsinglleft" unicode="&#x2039;" horiz-adv-x="313" 
d="M75 240l218 193v-43l-184 -163l184 -164v-45l-218 196v26z" />
    <glyph glyph-name="guilsinglright" unicode="&#x203a;" horiz-adv-x="313" 
d="M20 433l218 -193v-26l-218 -196v45l184 164l-184 163v43z" />
    <glyph glyph-name="franc" unicode="&#x20a3;" horiz-adv-x="367" 
d="M302 169h-194v-169h-33v169h-51v28h51v553h267v-29h-234v-406h195v-29h-195v-89h194v-28z" />
    <glyph glyph-name="lira" unicode="&#x20a4;" horiz-adv-x="529" 
d="M388 168h-210v-67q47 0 112.5 -36t103.5 -36t79 65h36q-59 -96 -117 -96q-40 0 -107.5 36.5t-106.5 36.5h-33q-49 -4 -89 -71h-36q50 93 125 101v67h-92v29h92v87h-92v28h92v236q0 91 50 150.5t131 59.5h9q68 0 125 -50v-35q-24 27 -59 43.5t-71 16.5q-72 0 -112.5 -52
t-40.5 -133v-236h211v-28h-210v-87h210v-29z" />
    <glyph glyph-name="Euro" unicode="&#x20ac;" horiz-adv-x="701" 
d="M463 761q106 0 203 -58l-12 -30q-85 59 -197 59t-211 -83t-132 -199h444l-11 -29h-438q-3 -23 -3 -48.5t5 -57.5h390l-11 -29h-373q33 -115 129.5 -192.5t210 -77.5t207.5 64v-37q-91 -56 -194 -56h-15q-155 0 -267.5 116t-112.5 272.5t114 271t274 114.5z" />
    <glyph glyph-name="uni2116" unicode="&#x2116;" horiz-adv-x="1111" 
d="M910 432h-10q-64 0 -111 49t-47 115t48 114t116.5 48t116.5 -48t48 -114t-47.5 -115t-113.5 -49zM999.5 688.5q-39.5 40.5 -92.5 40.5t-93 -40.5t-40 -94t40 -93.5t93 -40t92.5 40t39.5 93.5t-39.5 94zM1071 285h-329v31h329v-31zM627 750h29v-761l-552 679v-668h-29v761
l552 -678v667z" />
    <glyph glyph-name="trademark" unicode="&#x2122;" horiz-adv-x="669" 
d="M343 466v284h27l119 -230l121 230h24v-284h-31v211l-117 -220l-115 221v-212h-28zM273 750v-26h-104v-257h-30v257h-104v26h238z" />
    <glyph glyph-name="approxequal" unicode="&#x2248;" horiz-adv-x="533" 
d="M458 237q-40 -46 -80.5 -46t-108 36t-105.5 36q-49 -4 -89 -70v53q39 44 88 48q47 0 112.5 -36t103.5 -36t79 65v-50zM275.5 384q65.5 -36 103.5 -36t79 65v-50q-40 -46 -80.5 -46t-108 36t-105.5 36q-49 -4 -89 -70v53q39 44 88 48q47 0 112.5 -36z" />
    <glyph glyph-name="notequal" unicode="&#x2260;" horiz-adv-x="461" 
d="M386 492v-31h-99l-74 -99h173v-29h-195l-74 -99h-37l73 99h-78v29h100l74 99h-174v31h197l73 98h39l-74 -98h76z" />
    <glyph glyph-name="lessequal" unicode="&#x2264;" horiz-adv-x="463" 
d="M75 482l313 182v-38l-271 -159l271 -160v-40l-313 185v30zM388 157h-311v31h311v-31z" />
    <glyph glyph-name="greaterequal" unicode="&#x2265;" horiz-adv-x="463" 
d="M75 664l313 -182v-30l-313 -185v40l271 160l-271 159v38zM386 157h-311v31h311v-31z" />
    <glyph glyph-name="uniF6C3" unicode="&#xf6c3;" horiz-adv-x="99" 
d="M46 -195v56q-31 0 -31 31t34.5 31t34.5 -31q0 -7 -3 -16l-31 -71h-4z" />
    <glyph glyph-name="f_f" unicode="&#xfb00;" horiz-adv-x="484" 
d="M463 632v-28q-58 0 -98.5 -40t-40.5 -101v-263h140v-28h-140v-172h-32v172h-200v-172h-32v463q0 74 50 121.5t121 47.5v-28q-58 0 -98.5 -40t-40.5 -101v-263h200v263q0 74 50 121.5t121 47.5z" />
    <glyph glyph-name="fi" unicode="&#xfb01;" horiz-adv-x="410" 
d="M337 449v-449h-32v172h-213v-172h-32v463q0 74 50 121.5t121 47.5v-28q-58 0 -98.5 -40t-40.5 -101v-263h213v249h32zM292 617q0 27 29 27t29 -27t-29 -27t-29 27z" />
    <glyph glyph-name="fl" unicode="&#xfb02;" horiz-adv-x="483" 
d="M463 19v-28q-71 0 -121 47.5t-50 121.5v12h-200v-172h-32v463q0 74 50 121.5t121 47.5v-28q-58 0 -98.5 -40t-40.5 -101v-263h200v433h32v-473q0 -61 40.5 -101t98.5 -40z" />
    <glyph glyph-name="f_f_i" unicode="&#xfb03;" horiz-adv-x="642" 
d="M569 449v-449h-32v172h-213v-172h-32v172h-200v-172h-32v463q0 74 50 121.5t121 47.5v-28q-58 0 -98.5 -40t-40.5 -101v-263h200v263q0 74 50 121.5t121 47.5v-28q-58 0 -98.5 -40t-40.5 -101v-263h213v249h32zM524 620q0 27 29 27t29 -27t-29 -27t-29 27z" />
    <glyph glyph-name="f_f_l" unicode="&#xfb04;" horiz-adv-x="735" 
d="M712 19v-28q-71 0 -121 47.5t-50 121.5v12h-217v-172h-32v172h-200v-172h-32v463q0 74 50 121.5t121 47.5v-28q-58 0 -98.5 -40t-40.5 -101v-263h200v263q0 74 50 121.5t121 47.5v-28q-58 0 -98.5 -40t-40.5 -101v-263h217v431h32v-471q0 -61 40.5 -101t98.5 -40z" />
    <glyph glyph-name="_01" 
 />
    <glyph glyph-name="_2" 
 />
    <glyph glyph-name="_3" 
 />
    <glyph glyph-name="_4" 
 />
    <glyph glyph-name="_5" 
 />
    <glyph glyph-name="_6" 
 />
    <glyph glyph-name="_7" 
 />
    <glyph glyph-name="_8" 
 />
    <glyph glyph-name="_9" 
 />
    <glyph glyph-name="_10" 
 />
    <glyph glyph-name="_11" 
 />
    <glyph glyph-name="_12" 
 />
    <glyph glyph-name="_14" 
 />
    <glyph glyph-name="_15" 
 />
    <glyph glyph-name="_16" 
 />
    <glyph glyph-name="_17" 
 />
    <glyph glyph-name="_18" 
 />
    <glyph glyph-name="_19" 
 />
    <glyph glyph-name="_20" 
 />
    <glyph glyph-name="_21" 
 />
    <glyph glyph-name="_22" 
 />
    <glyph glyph-name="_23" 
 />
    <glyph glyph-name="_24" 
 />
    <glyph glyph-name="_25" 
 />
    <glyph glyph-name="_26" 
 />
    <glyph glyph-name="_27" 
 />
    <glyph glyph-name="_28" 
 />
    <glyph glyph-name="_29" 
 />
    <glyph glyph-name="_30" 
 />
    <glyph glyph-name="_31" 
 />
    <glyph glyph-name="_127" 
 />
    <glyph glyph-name="_129" 
 />
    <glyph glyph-name="_141" 
 />
    <glyph glyph-name="_142" 
 />
    <glyph glyph-name="_143" 
 />
    <glyph glyph-name="_144" 
 />
    <glyph glyph-name="_157" 
 />
    <glyph glyph-name="_158" 
 />
    <glyph glyph-name="_160" 
 />
    <glyph glyph-name="_170" 
 />
    <glyph glyph-name="_178" 
 />
    <glyph glyph-name="_179" 
 />
    <glyph glyph-name="_185" 
 />
    <glyph glyph-name="_186" 
 />
    <glyph glyph-name="_188" 
 />
    <glyph glyph-name="_189" 
 />
    <glyph glyph-name="_190" 
 />
    <glyph glyph-name="_1" horiz-adv-x="99" 
d="M46 -195v56q-31 0 -31 31t34.5 31t34.5 -31q0 -7 -3 -16l-31 -71h-4z" />
    </font>
</defs>
</svg>
